<?xml version="1.0" encoding="UTF-8"?>
<svg width="136px" height="136px" viewBox="0 0 136 136" version="1.1" xmlns="http://www.w3.org/2000/svg" xmlns:xlink="http://www.w3.org/1999/xlink">
    <!-- Generator: Sketch 48.2 (47327) - http://www.bohemiancoding.com/sketch -->
    <title>coins</title>
    <desc>Created with Sketch.</desc>
    <defs></defs>
    <g id="8.1.ekreasi---Produk" stroke="none" stroke-width="1" fill="none" fill-rule="evenodd" transform="translate(-220.000000, -745.000000)">
        <g id="coins" transform="translate(220.000000, 745.000000)" fill="#FF0198" fill-rule="nonzero">
            <path d="M131.466667,131.466667 L131.466667,124.666667 L131.466667,106.533333 C131.466667,105.281567 130.451767,104.266667 129.2,104.266667 L126.933333,104.266667 L126.933333,97.4666667 C126.933333,96.2149 125.918433,95.2 124.666667,95.2 L120.745333,95.2 C128.280017,88.6028667 129.039917,77.1465667 122.442783,69.6118833 C115.84565,62.0772 104.38935,61.3170167 96.8546667,67.9144333 C89.3199833,74.5115667 88.5598,85.9678667 95.1572167,93.50255 C95.6847833,94.1052 96.2520167,94.6724333 96.8546667,95.2 L92.9333333,95.2 C91.6815667,95.2 90.6666667,96.2149 90.6666667,97.4666667 L90.6666667,106.533333 C90.6666667,107.7851 91.6815667,108.8 92.9333333,108.8 L95.2,108.8 L95.2,131.466667 L86.1333333,131.466667 L86.1333333,126.933333 L88.4,126.933333 C89.6517667,126.933333 90.6666667,125.918433 90.6666667,124.666667 L90.6666667,115.6 C90.6666667,114.348233 89.6517667,113.333333 88.4,113.333333 L86.1333333,113.333333 L86.1333333,97.4666667 C86.1333333,96.2149 85.1184333,95.2 83.8666667,95.2 L81.6,95.2 L81.6,90.6666667 L83.8666667,90.6666667 C85.1184333,90.6666667 86.1333333,89.6517667 86.1333333,88.4 L86.1333333,79.3333333 C86.1333333,78.0815667 85.1184333,77.0666667 83.8666667,77.0666667 L81.6,77.0666667 L81.6,72.5333333 L83.8666667,72.5333333 C85.1184333,72.5333333 86.1333333,71.5184333 86.1333333,70.2666667 L86.1333333,61.2 C86.1333333,59.9482333 85.1184333,58.9333333 83.8666667,58.9333333 L70.2666667,58.9333333 L70.2666667,49.8666667 L72.5333333,49.8666667 C86.3036167,49.8666667 97.4666667,38.7036167 97.4666667,24.9333333 C97.4666667,23.6815667 96.4517667,22.6666667 95.2,22.6666667 L90.6666667,22.6666667 C82.5364167,22.6794167 74.9229667,26.65515 70.2666667,33.32 L70.2666667,20.4 L72.5333333,20.4 C82.5480333,20.4 90.6666667,12.2813667 90.6666667,2.26666667 C90.6666667,1.0149 89.6517667,0 88.4,0 L83.8666667,0 C77.2638667,0.00595 71.1858,3.6006 68,9.384 C64.8142,3.6006 58.7364167,0.00595 52.1333333,0 L47.6,0 C46.3482333,0 45.3333333,1.0149 45.3333333,2.26666667 C45.3333333,12.2813667 53.4519667,20.4 63.4666667,20.4 L65.7333333,20.4 L65.7333333,33.32 C61.0770333,26.65515 53.4635833,22.6794167 45.3333333,22.6666667 L40.8,22.6666667 C39.5482333,22.6666667 38.5333333,23.6815667 38.5333333,24.9333333 C38.5333333,38.7036167 49.6963833,49.8666667 63.4666667,49.8666667 L65.7333333,49.8666667 L65.7333333,58.9333333 L52.1333333,58.9333333 C50.8815667,58.9333333 49.8666667,59.9482333 49.8666667,61.2 L49.8666667,68 L47.6,68 C46.3482333,68 45.3333333,69.0149 45.3333333,70.2666667 L45.3333333,79.3333333 C45.3333333,80.5851 46.3482333,81.6 47.6,81.6 L49.8666667,81.6 L49.8666667,86.1333333 L47.6,86.1333333 C46.3482333,86.1333333 45.3333333,87.1482333 45.3333333,88.4 L45.3333333,97.4666667 C45.3333333,98.7184333 46.3482333,99.7333333 47.6,99.7333333 L49.8666667,99.7333333 L49.8666667,115.6 C49.8666667,116.851767 50.8815667,117.866667 52.1333333,117.866667 L54.4,117.866667 L54.4,122.4 L52.1333333,122.4 C50.8815667,122.4 49.8666667,123.4149 49.8666667,124.666667 L49.8666667,131.466667 L45.3333333,131.466667 L45.3333333,124.666667 C45.3333333,123.4149 44.3184333,122.4 43.0666667,122.4 L40.8,122.4 L40.8,117.866667 L43.0666667,117.866667 C44.3184333,117.866667 45.3333333,116.851767 45.3333333,115.6 L45.3333333,106.533333 C45.3333333,105.281567 44.3184333,104.266667 43.0666667,104.266667 L40.8,104.266667 L40.8,88.4 C40.8,87.1482333 39.7851,86.1333333 38.5333333,86.1333333 L6.8,86.1333333 C5.54823333,86.1333333 4.53333333,87.1482333 4.53333333,88.4 L4.53333333,106.533333 C4.53333333,107.7851 5.54823333,108.8 6.8,108.8 L9.06666667,108.8 L9.06666667,113.333333 L6.8,113.333333 C5.54823333,113.333333 4.53333333,114.348233 4.53333333,115.6 L4.53333333,124.666667 C4.53333333,125.918433 5.54823333,126.933333 6.8,126.933333 L9.06666667,126.933333 L9.06666667,131.466667 L0,131.466667 L0,136 L136,136 L136,131.466667 L131.466667,131.466667 Z M90.6666667,27.2 L92.7973333,27.2 C91.6433167,37.52155 82.9192,45.3285167 72.5333333,45.3333333 L70.4026667,45.3333333 C71.5566833,35.0117833 80.2808,27.2048167 90.6666667,27.2 Z M83.8666667,4.53333333 L85.952,4.53333051 C84.8453,11.0803167 79.1729667,15.8709167 72.5333333,15.8666667 L70.448,15.8666695 C71.5547,9.31968333 77.2270333,4.52908333 83.8666667,4.53333333 Z M63.4666667,15.8666667 C56.8270333,15.8709167 51.1547,11.0803167 50.048,4.53333051 L52.1333333,4.53333333 C58.7729667,4.52908333 64.4453,9.31968333 65.552,15.8666695 L63.4666667,15.8666667 Z M63.4666667,45.3333333 C53.0808,45.3285167 44.3566833,37.52155 43.2026667,27.2 L45.3333333,27.2 C55.7192,27.2048167 64.4433167,35.0117833 65.5973333,45.3333333 L63.4666667,45.3333333 Z M40.8,108.8 L40.8,113.333333 L13.6,113.333333 L13.6,108.8 L40.8,108.8 Z M9.06666667,90.6666667 L36.2666667,90.6666667 L36.2666667,95.2 L9.06666667,95.2 L9.06666667,90.6666667 Z M9.06666667,99.7333333 L36.2666667,99.7333333 L36.2666667,104.266667 L9.06666667,104.266667 L9.06666667,99.7333333 Z M9.06666667,117.866667 L36.2666667,117.866667 L36.2666667,122.4 L9.06666667,122.4 L9.06666667,117.866667 Z M40.8,131.466667 L13.6,131.466667 L13.6,126.933333 L40.8,126.933333 L40.8,131.466667 Z M86.1333333,117.866667 L86.1333333,122.4 L58.9333333,122.4 L58.9333333,117.866667 L86.1333333,117.866667 Z M81.6,108.8 L81.6,113.333333 L54.4,113.333333 L54.4,108.8 L81.6,108.8 Z M54.4,104.266667 L54.4,99.7333333 L79.3333333,99.7333333 L81.6,99.7333333 L81.6,104.266667 L54.4,104.266667 Z M81.6,86.1333333 L54.4,86.1333333 L54.4,81.6 L81.6,81.6 L81.6,86.1333333 Z M54.4,63.4666667 L81.6,63.4666667 L81.6,68 L54.4,68 L54.4,63.4666667 Z M49.8666667,72.5333333 L77.0666667,72.5333333 L77.0666667,77.0666667 L49.8666667,77.0666667 L49.8666667,72.5333333 Z M49.8666667,95.2 L49.8666667,90.6666667 L77.0666667,90.6666667 L77.0666667,95.2 L49.8666667,95.2 Z M81.6,131.466667 L54.4,131.466667 L54.4,126.933333 L81.6,126.933333 L81.6,131.466667 Z M95.2,81.6 C95.2,74.0888333 101.288833,68 108.8,68 C116.311167,68 122.4,74.0888333 122.4,81.6 C122.4,89.1111667 116.311167,95.2 108.8,95.2 C101.288833,95.2 95.2,89.1111667 95.2,81.6 Z M95.2,99.7333333 L122.4,99.7333333 L122.4,104.266667 L95.2,104.266667 L95.2,99.7333333 Z M126.933333,131.466667 L99.7333333,131.466667 L99.7333333,126.933333 L126.933333,126.933333 L126.933333,131.466667 Z M126.933333,122.4 L99.7333333,122.4 L99.7333333,117.866667 L126.933333,117.866667 L126.933333,122.4 Z M126.933333,113.333333 L99.7333333,113.333333 L99.7333333,108.8 L124.666667,108.8 L126.933333,108.8 L126.933333,113.333333 Z" id="Shape"></path>
            <path d="M113.5,81 C113.5,83.4854062 111.485406,85.5 109,85.5 L109,90 C113.970531,90 118,85.9705312 118,81 L113.5,81 Z" id="Shape"></path>
            <path d="M100,81 L104.5,81 C104.5,78.5145938 106.514594,76.5 109,76.5 L109,72 C104.029469,72 100,76.0294688 100,81 Z" id="Shape"></path>
            <path d="M123.674419,13.6744186 C119.915116,13.0296512 116.970349,10.0848837 116.325581,6.3255814 C116.325581,5.04127907 115.284302,4 114,4 C112.715698,4 111.674419,5.04127907 111.674419,6.3255814 C111.029651,10.0848837 108.084884,13.0296512 104.325581,13.6744186 C103.041279,13.6744186 102,14.7156977 102,16 C102,17.2843023 103.041279,18.3255814 104.325581,18.3255814 C108.084884,18.9703488 111.029651,21.9151163 111.674419,25.6744186 C111.674419,26.9587209 112.715698,28 114,28 C115.284302,28 116.325581,26.9587209 116.325581,25.6744186 C116.970349,21.9151163 119.915116,18.9703488 123.674419,18.3255814 C124.958721,18.3255814 126,17.2843023 126,16 C126,14.7156977 124.958721,13.6744186 123.674419,13.6744186 Z M114,19.3255814 C113.097674,18.0281977 111.971802,16.9023256 110.674419,16 C111.971802,15.0976744 113.097674,13.9718023 114,12.6744186 C114.902326,13.9718023 116.028198,15.0976744 117.325581,16 C116.028198,16.9023256 114.902326,18.0281977 114,19.3255814 Z" id="Shape"></path>
            <path d="M32.6744186,63.6744186 C28.9151163,63.0296512 25.9703488,60.0848837 25.3255814,56.3255814 C25.3255814,55.0412791 24.2843023,54 23,54 C21.7156977,54 20.6744186,55.0412791 20.6744186,56.3255814 C20.0296512,60.0848837 17.0848837,63.0296512 13.3255814,63.6744186 C12.0412791,63.6744186 11,64.7156977 11,66 C11,67.2843023 12.0412791,68.3255814 13.3255814,68.3255814 C17.0848837,68.9703488 20.0296512,71.9151163 20.6744186,75.6744186 C20.6744186,76.9587209 21.7156977,78 23,78 C24.2843023,78 25.3255814,76.9587209 25.3255814,75.6744186 C25.9703488,71.9151163 28.9151163,68.9703488 32.6744186,68.3255814 C33.9587209,68.3255814 35,67.2843023 35,66 C35,64.7156977 33.9587209,63.6744186 32.6744186,63.6744186 Z M23,69.3255814 C22.0976744,68.0281977 20.9718023,66.9023256 19.6744186,66 C20.9718023,65.0976744 22.0976744,63.9718023 23,62.6744186 C23.9023256,63.9718023 25.0281977,65.0976744 26.3255814,66 C25.0281977,66.9023256 23.9023256,68.0281977 23,69.3255814 Z" id="Shape"></path>
            <polygon id="Shape" points="128.875 54.125 128.875 47 124.125 47 124.125 54.125 117 54.125 117 58.875 124.125 58.875 124.125 66 128.875 66 128.875 58.875 136 58.875 136 54.125"></polygon>
            <path d="M36.3333333,40.1428571 L36.3333333,38 L32,38 L32,40.1428571 C32,47.24375 37.8202083,53 45,53 L45,48.7142857 C40.2135625,48.7142857 36.3333333,44.8766964 36.3333333,40.1428571 Z" id="Shape"></path>
        </g>
    </g>
</svg>