<?xml version="1.0" encoding="UTF-8"?>
<svg width="177px" height="177px" viewBox="0 0 177 177" version="1.1" xmlns="http://www.w3.org/2000/svg" xmlns:xlink="http://www.w3.org/1999/xlink">
    <!-- Generator: Sketch 48.2 (47327) - http://www.bohemiancoding.com/sketch -->
    <title>Combined Shape</title>
    <desc>Created with Sketch.</desc>
    <defs></defs>
    <g id="8.1.Chubb---Produk" stroke="none" stroke-width="1" fill="none" fill-rule="evenodd" transform="translate(-198.000000, -1058.000000)">
        <path d="M348.479088,1119.97874 L375,1146.49965 L348.479088,1173.02126 L348.479088,1208.47838 L313.021264,1208.47838 L286.500352,1235 L259.978736,1208.47838 L224.521264,1208.47838 L224.521264,1173.02126 L198,1146.49965 L224.521264,1119.97874 L224.521264,1084.52126 L259.978736,1084.52126 L286.500352,1058 L313.021264,1084.52126 L348.479088,1084.52126 L348.479088,1119.97874 Z M342.844657,1170.68861 L367.032915,1146.49965 L342.844657,1122.31139 L342.844657,1090.15569 L310.68861,1090.15569 L286.500352,1065.96708 L262.31139,1090.15569 L230.155695,1090.15569 L230.155695,1122.31139 L205.967085,1146.49965 L230.155695,1170.68861 L230.155695,1202.84395 L262.31139,1202.84395 L286.500352,1227.03292 L310.68861,1202.84395 L342.844657,1202.84395 L342.844657,1170.68861 Z M359.063013,1146.49965 L349.104862,1156.45815 L337.210227,1168.35314 L337.210227,1197.20952 L308.353139,1197.20952 L286.500352,1219.06301 L264.646861,1197.20952 L235.790125,1197.20952 L235.790125,1168.35314 L213.936987,1146.49965 L235.790125,1124.64686 L235.790125,1095.79013 L264.646861,1095.79013 L286.500352,1073.93699 L308.353139,1095.79013 L337.210227,1095.79013 L337.210227,1124.64686 L359.063013,1146.49965 Z M343.670101,1153.92618 L344.681482,1152.9148 L351.095929,1146.49965 L331.575796,1126.97952 L331.575796,1101.42456 L306.020484,1101.42456 L286.500352,1081.90407 L266.979516,1101.42456 L241.424556,1101.42456 L241.424556,1126.97952 L221.904071,1146.49965 L241.424556,1166.02048 L241.424556,1191.57509 L251.351014,1191.57509 L258.327847,1191.57509 L266.669622,1191.57509 L285.862253,1212.41861 L307.167091,1191.57509 L314.672505,1191.57509 L321.781395,1191.57509 L331.575796,1191.57509 L331.575796,1166.02048 L343.670101,1153.92618 Z M322.638918,1118.02297 C323.442788,1118.24064 324,1118.96348 324,1119.78794 L324,1138.48729 C324,1157.74347 315.020708,1170.48962 307.487523,1177.79114 C299.377372,1185.65256 289.930187,1190 286.500515,1190 C283.0705,1190 273.623315,1185.65256 265.513164,1177.79114 C257.979807,1170.48945 249,1157.7433 249,1138.48729 L249,1119.78811 C249,1118.96348 249.557212,1118.24064 250.361082,1118.02297 C262.804742,1114.6502 274.318284,1109.8195 285.560091,1103.25424 C286.14032,1102.91525 286.860539,1102.91525 287.44094,1103.25424 C298.367554,1109.63616 310.538792,1114.74314 322.638918,1118.02297 Z M320.300139,1138.48712 L320.300139,1121.17654 C308.684739,1117.90181 297.049757,1113.00536 286.500859,1106.95072 C275.681771,1113.17035 264.599707,1117.83487 252.700033,1121.17722 L252.700033,1138.48712 C252.700033,1156.47212 261.075907,1168.3656 268.10238,1175.17656 C276.077865,1182.90714 284.60541,1186.33955 286.500515,1186.33955 C288.395621,1186.33955 296.92265,1182.90714 304.897964,1175.17656 C311.924608,1168.36577 320.300139,1156.47212 320.300139,1138.48712 Z M269.869819,1121.13587 C270.246951,1122.05694 269.77679,1123.09748 268.819696,1123.46009 C265.835328,1124.59182 262.781619,1125.64468 259.724625,1126.59653 L259.724625,1132.20779 C259.724625,1133.19758 258.890648,1134 257.862313,1134 C256.833977,1134 256,1133.19758 256,1132.20779 L256,1125.28674 C256,1124.50363 256.528433,1123.81137 257.305002,1123.57674 C260.712671,1122.54801 264.12743,1121.38681 267.454346,1120.12528 C268.411613,1119.76235 269.492861,1120.21481 269.869819,1121.13587 Z M273.489613,1120 C272.91624,1120 272.369086,1119.6658 272.125247,1119.10405 C271.796679,1118.34735 272.136425,1117.46736 272.888779,1117.13678 L272.91279,1117.12637 C273.663902,1116.79509 274.544179,1117.13733 274.873989,1117.89389 C275.203523,1118.65017 274.864881,1119.53085 274.112941,1119.86241 L274.085618,1119.87435 C273.891458,1119.9596 273.689017,1120 273.489613,1120 Z M308.147436,1161.29131 C309.017161,1161.83132 309.261885,1162.93922 308.693307,1163.76592 C307.013249,1166.21031 305.044622,1168.54763 302.841751,1170.71297 C301.035225,1172.48887 299.077079,1174.14442 297.021986,1175.63363 C296.681363,1175.88064 296.280476,1176 295.882558,1176 C295.315901,1176 294.755707,1175.7573 294.385214,1175.29598 C293.755498,1174.51062 293.914455,1173.38877 294.74051,1172.79017 C296.645729,1171.40985 298.461337,1169.87466 300.136854,1168.22758 C302.174304,1166.22442 303.993057,1164.06506 305.543329,1161.81007 C306.112257,1160.98354 307.278061,1160.75131 308.147436,1161.29131 Z M290.80975,1176.20202 C291.502719,1175.79127 292.393988,1176.02667 292.800314,1176.72849 C293.20637,1177.43058 292.973489,1178.33292 292.280115,1178.74408 L292.183801,1178.8014 C291.954568,1178.93612 291.703586,1179 291.456386,1179 C290.954017,1179 290.465697,1178.73656 290.195939,1178.26467 C289.793395,1177.56066 290.031004,1176.65955 290.72627,1176.25181 L290.80975,1176.20202 Z M274.097249,1143.70674 L280.657414,1150.40807 L298.902244,1131.76969 C300.019791,1130.62838 301.505631,1130 303.086078,1130 C304.666695,1130 306.152534,1130.62821 307.269913,1131.76969 C309.576639,1134.12566 309.576639,1137.95999 307.270251,1140.31734 L284.841417,1163.23014 C283.72387,1164.37162 282.23803,1165 280.657583,1165 C279.077136,1165 277.591296,1164.37162 276.473917,1163.23048 L265.729918,1152.25508 C263.423361,1149.89842 263.423361,1146.06357 265.729918,1143.70674 C266.847635,1142.56543 268.333643,1141.93705 269.913922,1141.93705 C271.4942,1141.93705 272.98004,1142.56526 274.097249,1143.70674 Z M301.47556,1134.39851 L281.943734,1154.35147 C281.602641,1154.7001 281.14008,1154.89581 280.657414,1154.89581 C280.174748,1154.89581 279.712187,1154.69992 279.370756,1154.35147 L271.524271,1146.33557 C271.094315,1145.89634 270.522449,1145.65454 269.913753,1145.65454 C269.305057,1145.65454 268.732852,1145.89668 268.302727,1146.33591 C267.41494,1147.24285 267.41494,1148.71914 268.303065,1149.62643 L279.046726,1160.60149 C279.476851,1161.04072 280.049056,1161.28251 280.657583,1161.28251 C281.26611,1161.28251 281.838315,1161.04072 282.268271,1160.60149 L304.696766,1137.68903 C305.584891,1136.78175 305.584891,1135.30545 304.697104,1134.39851 C304.26681,1133.95928 303.695112,1133.71749 303.086247,1133.71749 C302.47772,1133.71749 301.905516,1133.95928 301.47556,1134.39851 Z" id="Combined-Shape" fill="#7ACB00"></path>
    </g>
</svg>