<?xml version="1.0" encoding="UTF-8"?>
<svg width="132px" height="135px" viewBox="0 0 132 135" version="1.1" xmlns="http://www.w3.org/2000/svg" xmlns:xlink="http://www.w3.org/1999/xlink">
    <!-- Generator: Sketch 48.2 (47327) - http://www.bohemiancoding.com/sketch -->
    <title>around</title>
    <desc>Created with Sketch.</desc>
    <defs></defs>
    <g id="8.1.ekreasi---Produk" stroke="none" stroke-width="1" fill="none" fill-rule="evenodd" transform="translate(-922.000000, -1081.000000)">
        <g id="around" transform="translate(922.000000, 1081.000000)" fill="#FF0198" fill-rule="nonzero">
            <path d="M128.955176,46.2949523 C118.085855,11.5606455 81.0056331,-7.85035018 46.2789416,3.01903137 C11.556705,13.8928697 -7.84858569,50.9974148 3.01863917,85.7317217 L7.28544462,84.3946776 C-2.84644944,52.0148791 15.2446275,17.4234525 47.6154302,7.28525052 C63.2968967,2.37725023 79.9505932,3.87080708 94.503382,11.4890743 C109.062722,19.1117983 119.782409,31.9463724 124.690729,47.6322585 C129.596691,63.3178824 128.105851,79.9764025 120.488652,94.5396959 C112.873549,109.105087 100.044307,119.829229 84.3628401,124.739588 C58.1160379,132.956904 29.3458927,122.579607 14.3819372,99.4993428 L10.6313832,101.932239 C23.0004544,121.014479 44.1712204,132.002359 66.1176739,132 C72.6441934,132 79.2443507,131.029463 85.6972323,129.00371 C102.516286,123.737854 116.277926,112.233508 124.449375,96.6126385 C132.620824,80.9915073 134.218845,63.1212583 128.955176,46.2949523 Z" id="Shape"></path>
            <path d="M53.7038951,32.2770634 L55,27.9193675 L32.4211427,21.0964349 C31.6309317,20.8553777 30.7660676,21.0737691 30.1767846,21.6673458 L25.6610661,26.2159676 C25.1350529,26.7458135 24.9023576,27.5031172 25.037898,28.240155 C25.1734384,28.9769261 25.6610661,29.5979684 26.3406211,29.9027565 L46.6616191,39 L48.4951205,34.8425629 L31.1795716,27.0892667 L32.4169071,25.8429156 L53.7038951,32.2770634 Z" id="Shape"></path>
            <path d="M73.9999918,18.2728121 C73.9999918,17.0182219 73.0043391,16 71.7728946,16 C71.7705445,16 71.7705445,16 71.7684555,16 C66.8687894,16 62.260795,17.9477059 58.7954641,21.4844349 L39.9096587,40.7557706 L32.2238362,38.7942078 C31.4644976,38.6010094 30.6625964,38.825919 30.1079763,39.3919235 L25.6537819,43.9375476 C25.1683588,44.4329349 24.9323058,45.1284489 25.0169089,45.8218311 C25.1015119,46.5149469 25.4934539,47.1331816 26.0814974,47.4923973 L36.7404385,54.0198368 L43.1365865,64.8975702 C43.488577,65.4976843 44.0920266,65.8976715 44.7735513,65.9840112 C44.8625934,65.9954698 44.9539856,66 45.0453778,66 C45.6310712,66 46.1990084,65.7636318 46.6222848,65.3364636 L51.0764793,60.7908395 C51.6287493,60.2248349 51.8514851,59.4067398 51.6621727,58.6315481 L49.7424144,50.7970218 L68.9290306,31.409767 C72.202699,27.9116777 74.0044309,23.3162217 73.9999918,18.2728121 Z M45.7044461,48.4741114 C45.145387,49.0377176 44.9205622,49.8606094 45.1098746,50.6400648 L47.031983,58.4836514 L45.4864104,60.0609494 L40.2726163,51.1924789 C40.0833038,50.8719028 39.8227055,50.6038235 39.5088386,50.4130234 L30.8187465,45.0922076 L32.3643191,43.5149096 L40.0501415,45.4764724 C40.8094801,45.6696708 41.6113813,45.4447613 42.1660014,44.8787567 L61.9427501,24.6960577 C63.9917631,22.6028535 66.5705897,21.2459348 69.3679743,20.7526795 C68.9269416,23.5619167 67.6730407,26.166497 65.7488434,28.2234599 L45.7044461,48.4741114 Z" id="Shape"></path>
            <path d="M69.9066869,57.8766482 L63.0869323,35 L58.726735,36.2828547 L65.1349643,57.7776209 L63.755128,58.9881909 L56.1760236,41.5223032 L52,43.310886 L60.820344,63.6358581 C61.1089982,64.2999241 61.7001662,64.7876472 62.4115401,64.9457203 C62.5775896,64.9817302 62.7433725,65 62.9094219,65 C63.4574118,65 63.9936742,64.8035339 64.4121294,64.435491 L69.2315613,60.2125293 C69.8952261,59.6313393 70.156694,58.7212935 69.9066869,57.8766482 Z" id="Shape"></path>
            <path d="M42.1029674,124.020624 C26.3197393,131.596646 13.9382303,132.575462 8.14086122,126.70546 C-1.90709766,116.527509 9.00506207,86.9569416 33.5220194,57.9182883 L30.1535588,55 C3.26329705,86.8490323 -7.07931118,117.640817 5.00521001,129.879573 C8.38042621,133.296086 13.147302,135 19.0597766,135 C25.9518174,135 34.3997315,132.685741 44,128.076961 L42.1029674,124.020624 Z" id="Shape"></path>
            <path d="M118.733129,77.8363888 C118.339376,77.0977404 117.5723,76.6364848 116.737033,76.6364848 L109.083516,76.6364848 L102.919046,64.2569282 C102.534314,63.48657 101.751317,63 100.893497,63 L78.2630211,63 C77.0114476,63 76,64.0181731 76,65.272703 L76,83.4545939 C76,84.7115221 77.0117129,85.727297 78.2630211,85.727297 L85.0520843,85.727297 L85.0520843,110.727297 C85.0520843,111.984225 86.0635319,113 87.3151054,113 L98.6302108,113 C99.2298623,113 99.8048379,112.761245 100.232554,112.331699 L109.284638,103.240887 C109.709966,102.815871 109.947704,102.238702 109.947704,101.634087 L109.947704,93.2318269 L118.619567,80.1682477 C119.081511,79.472767 119.126883,78.5750373 118.733129,77.8363888 Z M105.799761,91.2842145 C105.553002,91.6570028 105.419539,92.0977404 105.419539,92.5456726 L105.419539,100.695587 L97.693587,108.454594 L89.5783918,108.454594 L89.5760038,108.454594 L89.5760038,83.4545939 C89.5760038,82.1976657 88.5645563,81.1818909 87.3129828,81.1818909 L80.5239195,81.1818909 L80.5239195,67.5456726 L99.4928069,67.5456726 L105.657277,79.9252292 C106.04201,80.6955873 106.825006,81.1821573 107.682561,81.1821573 L112.507367,81.1821573 L105.799761,91.2842145 Z" id="Shape"></path>
            <path d="M120.345542,58.5294426 L112.037686,44.0089107 C111.63935,43.3115163 110.896209,42.8822296 110.095076,42.8822296 L96.6665792,42.8822296 C95.9189772,42.8822296 95.2207079,43.2554313 94.8045279,43.8768225 L90.9930434,49.5880657 L85.4761655,49.5880657 L85.4761655,38.4116722 L96.6665792,38.4116722 C97.2619843,38.4116722 97.828262,38.1768487 98.2489029,37.7567348 L106.545475,29.4705574 L116.809324,29.4705574 L116.809324,25 L105.61891,25 C105.023505,25 104.457227,25.2348235 104.036586,25.6549374 L95.7400145,33.9411148 L83.2380827,33.9411148 C82.0003015,33.9411148 81,34.9425218 81,36.1763935 L81,51.8233444 C81,53.0572162 82.0005639,54.0586231 83.2380827,54.0586231 L92.1904137,54.0586231 C92.9380157,54.0586231 93.636285,53.6854215 94.052465,53.0640302 L97.8639495,47.352787 L108.797203,47.352787 L117.105058,61.8733189 C117.503395,62.5707133 118.246536,63 119.047669,63 L128,63 L128,58.5294426 L120.345542,58.5294426 Z" id="Shape"></path>
            <path d="M65.7497527,80.7499604 L53.1813432,80.7499604 L47.0906386,74.6592469 C46.6698714,74.2361048 46.0960979,74 45.4999011,74 L34.2499835,74 C33.0079947,74 32,75.0058858 32,76.2499868 L32,91.9998945 C32,93.2442593 33.0079947,94.2498813 34.2499835,94.2498813 L43.2499176,94.2498813 L43.2499176,116.750013 C43.2499176,117.602892 43.7313597,118.381379 44.4942806,118.763631 C44.8116367,118.921123 45.1580112,119 45.5001649,119 C45.9771223,119 46.4519694,118.849368 46.8500495,118.54995 L55.8499835,111.799989 C56.4168981,111.374737 56.7500824,110.706521 56.7500824,110.000053 L56.7500824,104.330107 L67.1563551,96.0073455 C67.6895028,95.5799825 68,94.9341896 68,94.2501451 L68,83.000211 C67.9997362,81.7558462 66.9917415,80.7499604 65.7497527,80.7499604 Z M63.4997692,93.1701303 L53.0934965,101.492892 C52.5603488,101.920519 52.2498516,102.566048 52.2498516,103.250092 L52.2498516,108.875191 L47.7498846,112.250303 L47.7498846,92.0001583 C47.7498846,90.7557934 46.7418899,89.7501715 45.4999011,89.7501715 L36.499967,89.7501715 L36.499967,78.5002374 L44.5684095,78.5002374 L50.6591141,84.5909509 C51.0798813,85.0138292 51.6536548,85.2501979 52.2498516,85.2501979 L63.4997692,85.2501979 L63.4997692,93.1701303 Z" id="Shape"></path>
            <path d="M20.679369,48.5372594 L13.9290069,37.108688 C13.5240432,36.4207494 12.7903598,36 12.0007466,36 L9.75062589,36 L9.75062589,40.5714286 L10.7272875,40.5714286 L15.9184734,49.3599987 L10.4101759,54.9554294 C9.9870086,55.3828786 9.75088971,55.9657639 9.75088971,56.5714286 L9.75088971,63.4285714 L3,63.4285714 L3,68 L12.0004828,68 C13.2425473,68 14.2506035,66.9759979 14.2506035,65.7142857 L14.2506035,57.5177127 L20.3416794,51.3302849 C21.0708778,50.5874077 21.2104386,49.4377167 20.679369,48.5372594 Z" id="Shape"></path>
            <path d="M69.5703574,3 L69.5703574,5.84656271 L62.3875743,7.73889084 C62.1416561,7.80427561 61.9069043,7.91397976 61.6965625,8.0608903 L56.1217256,11.9763161 L43.9821469,5.58064642 L42,9.75487552 L55.2889278,16.7548755 C55.6013244,16.9182006 55.9402084,17 56.2790924,17 C56.7088649,17 57.1363002,16.8670419 57.5060863,16.607965 L63.8316616,12.1653574 L72.3211608,9.92996444 C73.3066511,9.67088756 74,8.73771837 74,7.66666667 L74,3 L69.5703574,3 Z" id="Shape"></path>
        </g>
    </g>
</svg>