<?xml version="1.0" encoding="UTF-8"?>
<svg width="141px" height="105px" viewBox="0 0 141 105" version="1.1" xmlns="http://www.w3.org/2000/svg" xmlns:xlink="http://www.w3.org/1999/xlink">
    <!-- Generator: Sketch 48.2 (47327) - http://www.bohemiancoding.com/sketch -->
    <title>heartbeat</title>
    <desc>Created with Sketch.</desc>
    <defs></defs>
    <g id="8.1.ekreasi---Produk" stroke="none" stroke-width="1" fill="none" fill-rule="evenodd" transform="translate(-920.000000, -752.000000)">
        <g id="heartbeat" transform="translate(920.000000, 752.000000)" fill="#8950D0" fill-rule="nonzero">
            <path d="M121.243581,9.74166602 C114.952967,3.45939513 106.587314,0 97.6906208,0 C88.7927577,0 80.4282751,3.45939513 74.1376602,9.74166602 L71.4929818,12.3823454 L68.8483035,9.74166602 C62.5565188,3.45939513 54.1908666,0 45.2941732,0 C36.3963101,0 28.0318275,3.45939513 21.7412126,9.74166602 C8.75292915,22.7079741 8.75292915,43.807715 21.7412126,56.775191 L69.0108909,103.973394 C69.6963317,104.657798 70.5934871,105 71.4918121,105 C72.3901372,105 73.2872926,104.657798 73.9750727,103.974561 L121.243581,56.776359 C127.535366,50.495256 131,42.1422533 131,33.2590125 C131,24.3746037 127.535366,16.022769 121.243581,9.74166602 Z M116.280569,51.8208514 L71.4929818,96.541884 L26.7042247,51.8208514 C16.4530255,41.5851529 16.4530255,24.9317042 26.7042247,14.6960057 C31.6695762,9.73816224 38.2713297,7.00755258 45.2941732,7.00755258 C52.3158469,7.00755258 58.9187702,9.73816224 63.8852913,14.6960057 L69.0108909,19.8138549 C70.3817724,21.1826635 72.6018519,21.1826635 73.9727333,19.8138549 L79.0983329,14.6960057 C84.0648541,9.73816224 90.6666077,7.00755258 97.6894511,7.00755258 C104.712295,7.00755258 111.315218,9.73816224 116.280569,14.6960057 C126.531768,24.9317042 126.531768,41.5851529 116.280569,51.8208514 Z" id="Shape"></path>
            <path d="M16.4705882,44 L3.52941176,44 C1.58,44 0,45.5668333 0,47.5 C0,49.4331667 1.58,51 3.52941176,51 L16.4705882,51 C18.42,51 20,49.4331667 20,47.5 C20,45.5668333 18.42,44 16.4705882,44 Z" id="Shape"></path>
            <path d="M125.670079,43.4003028 L92.2217342,43.4003028 L87.0166909,32.0993768 C86.6240992,31.2449362 85.7690182,30.7251419 84.7962763,30.7527416 C83.8468335,30.7929912 83.0173816,31.3967345 82.7005124,32.2810748 L72.0620934,61.8748501 L59.1287024,26.5184881 C58.8095032,25.6456476 57.9882061,25.0465042 57.046918,25.0028047 C56.0403922,24.9568052 55.2307446,25.4800495 54.8299982,26.3206902 L46.1393932,44.5502902 L17.3299209,44.5502902 C16.0426396,44.5502902 15,45.5806789 15,46.850265 C15,48.119851 16.533088,49.038691 17.8203693,49.038691 L48.1093413,49.038691 C49.0121857,49.038691 49.3430345,48.6361954 49.7274714,47.8300542 L56.6554913,33.2976637 L69.892937,69.4820167 C70.2261157,70.3928067 71.102166,71 72.0842277,71 C72.0865576,71 72.0888875,71 72.0888875,71 C73.0732791,70.9977 73.9493294,70.3847568 74.2778482,69.4693668 L85.1632388,39.1867491 L88.6010371,46.6513172 C88.9784843,47.4735581 90.2995495,47.8887036 91.2128785,47.8887036 L126.161692,47.8887036 C127.447809,47.8887036 128,46.9698637 128,45.7002776 C128,44.4306915 126.956195,43.4003028 125.670079,43.4003028 Z" id="Shape"></path>
            <path d="M137.6,43 L127.4,43 C125.522067,43 124,44.5668333 124,46.5 C124,48.4331667 125.522067,50 127.4,50 L137.6,50 C139.477933,50 141,48.4331667 141,46.5 C141,44.5668333 139.477933,43 137.6,43 Z" id="Shape"></path>
        </g>
    </g>
</svg>