<?xml version="1.0" encoding="iso-8859-1"?>
<!-- Generator: Adobe Illustrator 21.0.0, SVG Export Plug-In . SVG Version: 6.00 Build 0)  -->
<svg version="1.1" xmlns="http://www.w3.org/2000/svg" xmlns:xlink="http://www.w3.org/1999/xlink" x="0px" y="0px"
	 viewBox="0 0 1368.203 511.151" style="enable-background:new 0 0 1368.203 511.151;" xml:space="preserve">
<g id="Layer_4">
	<g>
		<g>
			<g>
				<g>
					
						<linearGradient id="SVGID_1_" gradientUnits="userSpaceOnUse" x1="-1488.1486" y1="-763.1685" x2="-1486.2747" y2="-763.1685" gradientTransform="matrix(21.6733 -8.4618 -8.4618 -21.6733 25982.9434 -29069.4688)">
						<stop  offset="0" style="stop-color:#FCEC00"/>
						<stop  offset="0.199" style="stop-color:#FCEC00"/>
						<stop  offset="0.2877" style="stop-color:#FBDF00"/>
						<stop  offset="0.7718" style="stop-color:#F89E00"/>
						<stop  offset="1" style="stop-color:#F78500"/>
					</linearGradient>
					<path style="fill:url(#SVGID_1_);" d="M186.563,54.083h0.192c13.324,0,26.386,1.391,39.08,4.125
						c-12.694-2.794-25.756-4.251-39.08-4.337l-0.197,0.206L186.563,54.083z"/>
					
						<linearGradient id="SVGID_2_" gradientUnits="userSpaceOnUse" x1="-1505.0499" y1="-729.4509" x2="-1503.1771" y2="-729.4509" gradientTransform="matrix(135.2102 -52.7897 -52.7897 -135.2102 165089.2344 -177919.8594)">
						<stop  offset="0" style="stop-color:#FCEC00"/>
						<stop  offset="0.199" style="stop-color:#FCEC00"/>
						<stop  offset="0.2877" style="stop-color:#FBDF00"/>
						<stop  offset="0.7718" style="stop-color:#F89E00"/>
						<stop  offset="1" style="stop-color:#F78500"/>
					</linearGradient>
					<path style="fill:url(#SVGID_2_);" d="M173.592,69.217c-32.262,40.103-46.458,92.195-39.034,143.105
						c2.037-2.834,4.165-5.619,6.324-8.311c37.007-45.993,92.134-72.37,151.234-72.37c16.325,0,32.564,2.048,48.288,6.098
						c-10.549-16.012-23.546-30.285-38.625-42.414c-32.957-26.507-72.652-40.677-114.828-40.985
						C182.226,59.085,177.732,64.083,173.592,69.217z"/>
					
						<linearGradient id="SVGID_3_" gradientUnits="userSpaceOnUse" x1="-1518.2813" y1="-724.9423" x2="-1516.4075" y2="-724.9423" gradientTransform="matrix(-55.3661 -93.9353 -93.9353 55.3661 -151942.9844 -102090.3594)">
						<stop  offset="0" style="stop-color:#0071BC"/>
						<stop  offset="0.1054" style="stop-color:#0074BE"/>
						<stop  offset="0.118" style="stop-color:#0071BC"/>
						<stop  offset="0.3943" style="stop-color:#0092D7"/>
						<stop  offset="1" style="stop-color:#A4CCF4"/>
					</linearGradient>
					<path style="fill:url(#SVGID_3_);" d="M130.428,234.376c-31.939,56.318-31.893,126.255,0.156,182.759
						c17.707,5.498,36.129,8.281,54.754,8.281c45.378,0,88.88-16.39,122.64-46.175c-40.396-2.138-79.924-17.237-111.424-42.594
						C164.307,310.695,140.851,274.414,130.428,234.376z"/>
					
						<linearGradient id="SVGID_4_" gradientUnits="userSpaceOnUse" x1="-1510.2699" y1="-729.0071" x2="-1508.3959" y2="-729.0071" gradientTransform="matrix(74.1956 -163.983 -163.983 -74.1956 -7150.9116 -301356.5625)">
						<stop  offset="0" style="stop-color:#9E005D"/>
						<stop  offset="0.1071" style="stop-color:#9E005D"/>
						<stop  offset="0.2351" style="stop-color:#B40046"/>
						<stop  offset="0.4179" style="stop-color:#CD002B"/>
						<stop  offset="0.6049" style="stop-color:#DF0018"/>
						<stop  offset="0.7965" style="stop-color:#E9000D"/>
						<stop  offset="1" style="stop-color:#ED0009"/>
					</linearGradient>
					<path style="fill:url(#SVGID_4_);" d="M462.707,301.859c3.777-4.71,7.413-9.713,10.771-14.857
						c-8.815-41.621-31.958-79.243-65.153-105.947c-15.089-12.148-31.807-21.782-49.685-28.66
						c15.679,31.081,22.73,65.919,20.349,100.843c-2.713,39.695-17.379,77.115-42.419,108.232c-2.521,3.157-5.204,6.294-7.973,9.3
						C380.962,367.844,429.79,342.759,462.707,301.859z"/>
					
						<linearGradient id="SVGID_5_" gradientUnits="userSpaceOnUse" x1="-1505.668" y1="-718.9576" x2="-1503.7952" y2="-718.9576" gradientTransform="matrix(-55.4499 224.5331 224.5331 55.4499 78068.6328 377975.7813)">
						<stop  offset="0" style="stop-color:#D8E000"/>
						<stop  offset="0.0924" style="stop-color:#CFDD09"/>
						<stop  offset="0.2459" style="stop-color:#B7D623"/>
						<stop  offset="0.4417" style="stop-color:#8FCA4C"/>
						<stop  offset="0.6722" style="stop-color:#58BA86"/>
						<stop  offset="0.929" style="stop-color:#13A5CE"/>
						<stop  offset="0.9944" style="stop-color:#009FE2"/>
						<stop  offset="1" style="stop-color:#009FE2"/>
					</linearGradient>
					<path style="fill:url(#SVGID_5_);" d="M40.901,123.563c-64.129,79.702-51.456,196.744,28.247,260.873
						c15.084,12.134,31.806,21.776,49.68,28.646c-30.551-60.427-27.172-133.332,8.906-190.627
						c-10.878-56.196,3.439-113.955,39.296-158.527c2.526-3.142,5.215-6.268,7.988-9.284
						C122.646,57.583,73.818,82.663,40.901,123.563z"/>
					
						<linearGradient id="SVGID_6_" gradientUnits="userSpaceOnUse" x1="-1513.2599" y1="-722.9699" x2="-1511.3867" y2="-722.9699" gradientTransform="matrix(-163.7276 -149.3965 -149.3965 163.7276 -355264.2188 -107486.7969)">
						<stop  offset="0" style="stop-color:#F15A24"/>
						<stop  offset="0.8277" style="stop-color:#FFFF00"/>
						<stop  offset="1" style="stop-color:#FFFF00"/>
					</linearGradient>
					<path style="fill:url(#SVGID_6_);" d="M352.559,141.279c22.18,7.288,42.715,18.459,61.047,33.205
						c32.257,25.952,55.697,62.243,66.132,102.301c21.337-37.652,28.842-81.73,21.151-124.273
						c-7.937-43.836-31.524-83.455-66.409-111.53C401.624,14.55,360.361,0,318.281,0C272.913,0,229.4,16.385,195.635,46.165
						c40.386,2.138,79.935,17.243,111.419,42.585C325.386,103.501,340.693,121.182,352.559,141.279z"/>
					
						<linearGradient id="SVGID_7_" gradientUnits="userSpaceOnUse" x1="-1505.4978" y1="-724.9981" x2="-1503.6238" y2="-724.9981" gradientTransform="matrix(330.8888 47.1315 47.1315 -330.8888 532290.5 -168590.7188)">
						<stop  offset="0" style="stop-color:#0071BC"/>
						<stop  offset="0.1243" style="stop-color:#0071BC"/>
						<stop  offset="0.8622" style="stop-color:#93008E"/>
						<stop  offset="1" style="stop-color:#93008E"/>
					</linearGradient>
					<path style="fill:url(#SVGID_7_);" d="M475.587,298.823c-2.022,2.834-4.155,5.628-6.319,8.321
						c-36.517,45.369-90.863,71.734-149.132,72.33c-36.26,35.07-84.12,54.365-134.798,54.365c-16.32,0-32.554-2.047-48.283-6.092
						c10.56,16.007,23.556,30.27,38.635,42.403c32.852,26.456,74.12,41.001,116.189,41.001c56.549,0,109.29-25.236,144.689-69.232
						C468.829,401.824,483.02,349.729,475.587,298.823z"/>
				</g>
				<g>
					<path style="fill:#666666;" d="M601.293,387.492h-0.383c-3.313,4.771-8.261,7.202-14.837,7.202c-6.183,0-11-2.138-14.424-6.354
						c-3.439-4.197-5.159-10.239-5.159-18.015c0-7.806,1.73-13.869,5.174-18.185c3.454-4.307,8.256-6.425,14.408-6.425
						c6.41,0,11.327,2.32,14.746,6.95h0.555l-0.297-3.409l-0.166-3.308v-19.225h7.146v67.105h-5.81L601.293,387.492z
						 M586.976,388.692c4.886,0,8.432-1.341,10.631-4.014c2.189-2.643,3.303-6.94,3.303-12.851v-1.503
						c0-6.718-1.125-11.499-3.343-14.352c-2.229-2.865-5.79-4.297-10.676-4.297c-4.191,0-7.414,1.643-9.632,4.902
						c-2.225,3.268-3.349,7.878-3.349,13.828c0,6.032,1.109,10.58,3.323,13.668C579.446,387.169,582.699,388.692,586.976,388.692z"
						/>
					<path style="fill:#666666;" d="M624.85,333.762c0-1.674,0.393-2.874,1.2-3.591c0.812-0.777,1.826-1.17,3.021-1.17
						c1.155,0,2.154,0.394,2.976,1.17c0.831,0.777,1.251,1.987,1.251,3.591c0,1.613-0.419,2.813-1.251,3.56
						c-0.822,0.797-1.821,1.21-2.976,1.21c-1.195,0-2.209-0.413-3.021-1.21C625.244,336.576,624.85,335.376,624.85,333.762z
						 M632.611,393.826h-7.166v-47.274h7.166V393.826z"/>
					<path style="fill:#666666;" d="M688.666,346.552v4.528l-8.74,1.049c0.802,0.999,1.518,2.32,2.154,3.954
						c0.63,1.604,0.943,3.429,0.943,5.487c0,4.599-1.578,8.321-4.736,11.074c-3.167,2.744-7.509,4.125-13.031,4.125
						c-1.403,0-2.719-0.09-3.959-0.333c-3.046,1.614-4.575,3.621-4.575,6.082c0,1.281,0.54,2.229,1.599,2.864
						c1.064,0.626,2.89,0.938,5.477,0.938h8.361c5.115,0,9.048,1.06,11.791,3.208c2.749,2.159,4.121,5.306,4.121,9.421
						c0,5.245-2.098,9.229-6.294,11.973c-4.201,2.743-10.318,4.125-18.367,4.125c-6.188,0-10.944-1.17-14.298-3.46
						c-3.343-2.33-5.033-5.547-5.033-9.743c0-2.895,0.933-5.346,2.764-7.484c1.851-2.099,4.433-3.521,7.771-4.267
						c-1.216-0.535-2.234-1.382-3.046-2.532c-0.817-1.17-1.226-2.502-1.226-4.004c0-1.745,0.454-3.248,1.382-4.539
						c0.908-1.301,2.365-2.531,4.347-3.752c-2.441-1.008-4.433-2.703-5.976-5.133c-1.522-2.401-2.295-5.155-2.295-8.271
						c0-5.185,1.549-9.158,4.655-11.973c3.107-2.784,7.505-4.176,13.193-4.176c2.465,0,4.705,0.262,6.681,0.838H688.666z
						 M650.984,401.733c0,2.563,1.078,4.499,3.232,5.841c2.159,1.311,5.25,1.986,9.28,1.986c6.001,0,10.454-0.887,13.344-2.693
						c2.885-1.816,4.332-4.246,4.332-7.313c0-2.563-0.792-4.347-2.37-5.336c-1.578-0.999-4.554-1.462-8.926-1.462h-8.579
						c-3.254,0-5.785,0.756-7.596,2.32C651.891,396.641,650.984,398.849,650.984,401.733z M654.861,361.702
						c0,3.298,0.934,5.779,2.799,7.493c1.882,1.695,4.484,2.552,7.813,2.552c6.989,0,10.479-3.419,10.479-10.177
						c0-7.101-3.534-10.641-10.61-10.641c-3.369,0-5.946,0.887-7.762,2.693C655.78,355.427,654.861,358.121,654.861,361.702z"/>
					<path style="fill:#666666;" d="M699.983,333.762c0-1.674,0.393-2.874,1.2-3.591c0.807-0.777,1.806-1.17,3.026-1.17
						c1.139,0,2.148,0.394,2.965,1.17c0.837,0.777,1.261,1.987,1.261,3.591c0,1.613-0.424,2.813-1.261,3.56
						c-0.817,0.797-1.826,1.21-2.965,1.21c-1.221,0-2.22-0.413-3.026-1.21C700.377,336.576,699.983,335.376,699.983,333.762z
						 M707.759,393.826h-7.171v-47.274h7.171V393.826z"/>
					<path style="fill:#666666;" d="M740.389,388.763c1.281,0,2.491-0.101,3.672-0.292c1.18-0.162,2.108-0.384,2.804-0.575v5.477
						c-0.777,0.383-1.937,0.695-3.43,0.938c-1.503,0.242-2.864,0.383-4.075,0.383c-9.148,0-13.698-4.832-13.698-14.464v-28.1h-6.788
						v-3.48l6.788-2.935l3.006-10.106h4.146v10.944h13.708v5.577h-13.708v27.808c0,2.864,0.666,5.043,2.028,6.546
						C736.183,388.006,738.048,388.763,740.389,388.763z"/>
					<path style="fill:#666666;" d="M757.899,333.762c0-1.674,0.404-2.874,1.231-3.591c0.786-0.777,1.805-1.17,2.995-1.17
						c1.15,0,2.159,0.394,2.986,1.17c0.847,0.777,1.24,1.987,1.24,3.591c0,1.613-0.393,2.813-1.24,3.56
						c-0.827,0.797-1.836,1.21-2.986,1.21c-1.19,0-2.209-0.413-2.995-1.21C758.303,336.576,757.899,335.376,757.899,333.762z
						 M765.675,393.826h-7.141v-47.274h7.141V393.826z"/>
					<polygon style="fill:#666666;" points="813.283,393.826 779.01,393.826 779.01,388.965 804.8,352.129 780.604,352.129 
						780.604,346.552 812.648,346.552 812.648,352.129 787.19,388.249 813.283,388.249 					"/>
					<path style="fill:#666666;" d="M825.992,333.762c0-1.674,0.383-2.874,1.19-3.591c0.817-0.777,1.796-1.17,3.037-1.17
						c1.149,0,2.128,0.394,2.955,1.17c0.838,0.777,1.251,1.987,1.251,3.591c0,1.613-0.413,2.813-1.251,3.56
						c-0.827,0.797-1.805,1.21-2.955,1.21c-1.241,0-2.22-0.413-3.037-1.21C826.375,336.576,825.992,335.376,825.992,333.762z
						 M833.728,393.826h-7.141v-47.274h7.141V393.826z"/>
					<path style="fill:#666666;" d="M883.474,393.826v-30.592c0-3.854-0.887-6.748-2.642-8.634
						c-1.756-1.877-4.499-2.825-8.231-2.825c-4.953,0-8.563,1.331-10.863,4.004c-2.299,2.673-3.459,7.09-3.459,13.234v24.812h-7.151
						v-47.274h5.829l1.151,6.465h0.352c1.473-2.339,3.521-4.145,6.163-5.427c2.643-1.26,5.588-1.876,8.846-1.876
						c5.689,0,9.975,1.361,12.85,4.085c2.865,2.764,4.307,7.151,4.307,13.183v30.844H883.474z"/>
					<path style="fill:#666666;" d="M946.21,346.552v4.528l-8.744,1.049c0.817,0.999,1.522,2.32,2.158,3.954
						c0.646,1.604,0.948,3.429,0.948,5.487c0,4.599-1.583,8.321-4.75,11.074c-3.157,2.744-7.494,4.125-13.022,4.125
						c-1.412,0-2.733-0.09-3.964-0.333c-3.046,1.614-4.579,3.621-4.579,6.082c0,1.281,0.534,2.229,1.604,2.864
						c1.069,0.626,2.874,0.938,5.467,0.938h8.381c5.114,0,9.048,1.06,11.781,3.208c2.764,2.159,4.125,5.306,4.125,9.421
						c0,5.245-2.098,9.229-6.303,11.973c-4.186,2.743-10.319,4.125-18.367,4.125c-6.163,0-10.934-1.17-14.303-3.46
						c-3.339-2.33-5.023-5.547-5.023-9.743c0-2.895,0.927-5.346,2.763-7.484c1.846-2.099,4.419-3.521,7.767-4.267
						c-1.2-0.535-2.229-1.382-3.036-2.532c-0.837-1.17-1.22-2.502-1.22-4.004c0-1.745,0.453-3.248,1.372-4.539
						c0.918-1.301,2.381-2.531,4.358-3.752c-2.442-1.008-4.428-2.703-5.981-5.133c-1.523-2.401-2.3-5.155-2.3-8.271
						c0-5.185,1.553-9.158,4.66-11.973c3.096-2.784,7.484-4.176,13.193-4.176c2.472,0,4.701,0.262,6.688,0.838H946.21z
						 M908.528,401.733c0,2.563,1.079,4.499,3.238,5.841c2.148,1.311,5.255,1.986,9.259,1.986c6.031,0,10.469-0.887,13.344-2.693
						c2.894-1.816,4.337-4.246,4.337-7.313c0-2.563-0.777-4.347-2.37-5.336c-1.574-0.999-4.559-1.462-8.917-1.462h-8.584
						c-3.247,0-5.779,0.756-7.595,2.32C909.426,396.641,908.528,398.849,908.528,401.733z M912.401,361.702
						c0,3.298,0.938,5.779,2.814,7.493c1.856,1.695,4.458,2.552,7.796,2.552c6.99,0,10.48-3.419,10.48-10.177
						c0-7.101-3.52-10.641-10.61-10.641c-3.349,0-5.951,0.887-7.746,2.693C913.299,355.427,912.401,358.121,912.401,361.702z"/>
					<path style="fill:#666666;" d="M1002.15,394.694c-6.819,0-12.104-2.138-15.877-6.334c-3.732-4.206-5.618-10.157-5.618-17.873
						c0-7.908,1.886-14.03,5.699-18.346c3.823-4.307,9.249-6.425,16.289-6.425c2.269,0,4.529,0.222,6.798,0.707
						c2.3,0.494,4.065,1.059,5.356,1.734l-2.188,6.072c-1.584-0.625-3.299-1.15-5.185-1.563c-1.856-0.424-3.52-0.626-4.972-0.626
						c-9.572,0-14.383,6.112-14.383,18.367c0,5.81,1.16,10.258,3.52,13.375c2.32,3.076,5.799,4.669,10.399,4.669
						c3.954,0,7.968-0.887,12.125-2.572v6.324C1010.945,393.866,1006.961,394.694,1002.15,394.694z"/>
					<path style="fill:#666666;" d="M1049.092,345.714c2.098,0,3.984,0.121,5.649,0.484l-1.019,6.657
						c-1.937-0.434-3.651-0.646-5.144-0.646c-3.833,0-7.101,1.553-9.804,4.671c-2.724,3.076-4.095,6.939-4.095,11.589v25.357h-7.141
						v-47.274h5.89l0.817,8.754h0.363c1.735-3.066,3.873-5.457,6.334-7.111C1043.413,346.531,1046.126,345.714,1049.092,345.714z"/>
					<path style="fill:#666666;" d="M1085.766,394.694c-7.011,0-12.497-2.138-16.563-6.415c-4.034-4.256-6.062-10.147-6.062-17.702
						c0-7.615,1.896-13.677,5.649-18.155c3.742-4.498,8.785-6.707,15.089-6.707c5.951,0,10.611,1.926,14.091,5.82
						c3.42,3.893,5.154,9.048,5.154,15.412v4.528h-32.558c0.141,5.538,1.553,9.754,4.195,12.669
						c2.663,2.855,6.415,4.307,11.247,4.307c5.103,0,10.127-1.099,15.099-3.207v6.374c-2.531,1.079-4.922,1.877-7.181,2.37
						C1091.665,394.442,1088.932,394.694,1085.766,394.694z M1083.829,351.676c-3.793,0-6.829,1.24-9.088,3.732
						c-2.27,2.461-3.611,5.88-3.985,10.248h24.692c0-4.509-0.999-7.968-2.996-10.369
						C1090.405,352.885,1087.54,351.676,1083.829,351.676z"/>
					<path style="fill:#666666;" d="M1146.596,393.826l-1.412-6.718h-0.333c-2.381,2.946-4.73,4.933-7.081,6.011
						c-2.32,1.06-5.255,1.574-8.754,1.574c-4.69,0-8.372-1.221-11.024-3.632c-2.673-2.43-3.985-5.87-3.985-10.318
						c0-9.552,7.615-14.544,22.896-14.998l8.029-0.253v-2.955c0-3.712-0.797-6.435-2.411-8.2c-1.583-1.775-4.146-2.663-7.636-2.663
						c-3.954,0-8.402,1.209-13.374,3.63l-2.209-5.477c2.32-1.251,4.882-2.259,7.666-2.965c2.764-0.746,5.547-1.099,8.362-1.099
						c5.608,0,9.784,1.261,12.487,3.772c2.733,2.502,4.095,6.486,4.095,12.034v32.256H1146.596z M1130.438,388.763
						c4.447,0,7.967-1.231,10.5-3.651c2.531-2.451,3.792-5.871,3.792-10.288v-4.247l-7.141,0.293
						c-5.679,0.221-9.793,1.099-12.305,2.642c-2.521,1.594-3.772,4.015-3.772,7.323c0,2.582,0.796,4.549,2.35,5.911
						C1125.415,388.087,1127.634,388.763,1130.438,388.763z"/>
					<path style="fill:#666666;" d="M1184.138,388.763c1.251,0,2.491-0.101,3.661-0.292c1.169-0.162,2.098-0.384,2.813-0.575v5.477
						c-0.796,0.383-1.947,0.695-3.45,0.938c-1.492,0.242-2.854,0.383-4.054,0.383c-9.149,0-13.727-4.832-13.727-14.464v-28.1h-6.779
						v-3.48l6.779-2.935l3.035-10.106h4.106v10.944h13.737v5.577h-13.737v27.808c0,2.864,0.676,5.043,2.057,6.546
						C1179.911,388.006,1181.787,388.763,1184.138,388.763z"/>
					<path style="fill:#666666;" d="M1201.627,333.762c0-1.674,0.414-2.874,1.231-3.591c0.796-0.777,1.805-1.17,3.005-1.17
						c1.17,0,2.159,0.394,2.976,1.17c0.847,0.777,1.251,1.987,1.251,3.591c0,1.613-0.404,2.813-1.251,3.56
						c-0.817,0.797-1.805,1.21-2.976,1.21c-1.2,0-2.209-0.413-3.005-1.21C1202.041,336.576,1201.627,335.376,1201.627,333.762z
						 M1209.404,393.826h-7.151v-47.274h7.151V393.826z"/>
					<path style="fill:#666666;" d="M1237.131,393.826l-17.923-47.274h7.666l10.177,28.029c2.29,6.546,3.661,10.802,4.045,12.77
						h0.353c0.323-1.523,1.301-4.69,2.995-9.471c1.695-4.802,5.458-15.23,11.327-31.328h7.696l-17.953,47.274H1237.131z"/>
					<path style="fill:#666666;" d="M1272.645,333.762c0-1.674,0.394-2.874,1.19-3.591c0.817-0.777,1.836-1.17,3.026-1.17
						c1.15,0,2.129,0.394,2.976,1.17c0.847,0.777,1.251,1.987,1.251,3.591c0,1.613-0.404,2.813-1.251,3.56
						c-0.847,0.797-1.826,1.21-2.976,1.21c-1.19,0-2.209-0.413-3.026-1.21C1273.039,336.576,1272.645,335.376,1272.645,333.762z
						 M1280.412,393.826h-7.182v-47.274h7.182V393.826z"/>
					<path style="fill:#666666;" d="M1313.051,388.763c1.281,0,2.482-0.101,3.651-0.292c1.2-0.162,2.129-0.384,2.804-0.575v5.477
						c-0.756,0.383-1.896,0.695-3.399,0.938c-1.522,0.242-2.864,0.383-4.085,0.383c-9.148,0-13.707-4.832-13.707-14.464v-28.1
						h-6.768v-3.48l6.768-2.935l3.006-10.106h4.145v10.944h13.687v5.577h-13.687v27.808c0,2.864,0.676,5.043,2.008,6.546
						C1308.855,388.006,1310.711,388.763,1313.051,388.763z"/>
					<path style="fill:#666666;" d="M1323.662,346.552h7.696l10.339,26.96c2.269,6.142,3.66,10.601,4.236,13.325h0.333
						c0.374-1.483,1.17-3.985,2.37-7.535c1.17-3.551,5.073-14.464,11.7-32.75h7.666l-20.323,53.82
						c-1.998,5.315-4.338,9.078-7.041,11.327c-2.673,2.239-5.971,3.349-9.905,3.349c-2.178,0-4.316-0.273-6.435-0.766v-5.719
						c1.543,0.352,3.318,0.504,5.285,0.504c4.912,0,8.402-2.743,10.54-8.261l2.622-6.738L1323.662,346.552z"/>
					<path d="M627.492,148.148c24.778,0,44.007,11.756,57.73,35.271c4.675,9.204,7.015,19.22,7.015,29.997v2.37
						c-1.079,6.284-4.065,9.415-8.901,9.415h-99.003c3.677,12.467,11.635,22.004,23.844,28.6c7.197,2.764,13.93,4.181,20.198,4.181
						c7.277,0,15.594-2.351,24.974-7.041h2.763c5.598,1.079,8.402,3.934,8.402,8.513v1.392c0,7.696-11.251,13.001-33.754,15.926
						h-3.268c-23.077,0-41.575-10.802-55.449-32.362c-5.613-10.232-8.407-20.898-8.407-32.009c0-23.517,11.116-42.237,33.371-56.216
						C607.794,150.841,617.966,148.148,627.492,148.148z M582.825,206.896h90.228c0-6.445-3.763-14.792-11.302-24.969
						c-10.288-9.713-20.454-14.569-30.49-14.569h-5.145c-15.059,0-27.44,7.362-37.133,22.099
						C585.629,195.296,583.577,201.106,582.825,206.896z"/>
					<path d="M872.601,147.412c6.011,1.492,9.027,4.195,9.027,8.039v10.404c13.788-12.31,28.555-18.442,44.279-18.442
						c8.432,0,17.439,2.073,26.981,6.132c2.501,2.628,3.763,5.134,3.763,7.53v0.524c-0.988,5.911-3.985,8.892-8.896,8.892h-0.495
						c-8.624-2.759-15.129-4.151-19.467-4.151h-2.743c-18.509,0-32.054,9.583-40.668,28.762c-1.846,5.084-2.754,10.893-2.754,17.445
						v55.706c0,4.68-3.016,7.524-9.027,8.523h-0.535c-4.741,0-7.726-3.137-8.896-9.41V158.321
						C863.926,151.038,867.043,147.412,872.601,147.412z"/>
					<path d="M1019.538,148.148c24.783,0,44.018,11.756,57.745,35.271c4.659,9.204,7.01,19.22,7.01,29.997v2.37
						c-1.09,6.284-4.055,9.415-8.896,9.415h-99.008c3.661,12.467,11.64,22.004,23.825,28.6c7.211,2.764,13.919,4.181,20.223,4.181
						c7.252,0,15.583-2.351,24.973-7.041h2.753c5.588,1.079,8.402,3.934,8.402,8.513v1.392c0,7.696-11.256,13.001-33.749,15.926
						h-3.278c-23.066,0-41.555-10.802-55.454-32.362c-5.598-10.232-8.392-20.898-8.392-32.009c0-23.517,11.126-42.237,33.366-56.216
						C999.84,150.841,1010.017,148.148,1019.538,148.148z M974.897,206.896h90.212c0-6.445-3.793-14.792-11.327-24.969
						c-10.258-9.713-20.435-14.569-30.471-14.569h-5.134c-15.059,0-27.434,7.362-37.138,22.099
						C977.68,195.296,975.642,201.106,974.897,206.896z"/>
					<path d="M1162.038,148.411c24.258,0,43.462,11.877,57.593,35.635c4.347,9.612,6.536,19.623,6.536,30.002v54.335
						c0,4.599-2.976,7.393-8.926,8.392h-0.495c-4.015,0-6.99-2.32-8.896-7.01v-0.514l0.494-11.655v-0.52
						c-13.808,13.133-28.655,19.698-44.561,19.698h-3.642c-21.736,0-39.891-10.904-54.436-32.735
						c-5.275-10.571-7.907-21.187-7.907-31.883c0-23.844,11.71-42.727,35.14-56.706
						C1142.875,150.76,1152.598,148.411,1162.038,148.411z M1116.115,211.667v1.366c0,18.67,9.361,32.715,28.1,42.156
						c5.941,2.178,11.247,3.282,15.926,3.282h3.642c15.573,0,28.433-7.806,38.539-23.339c3.672-7.363,5.528-14.404,5.528-21.085
						v-1.891c0-17.98-8.866-31.737-26.638-41.279c-6.153-2.764-12.568-4.151-19.175-4.151h-0.484
						c-18.941,0-33.163,9.849-42.654,29.493C1117.033,202.332,1116.115,207.466,1116.115,211.667z"/>
					<path d="M1246.824,184.52c0-6.007,1.19-11.055,3.6-15.145c2.37-4.126,5.558-7.484,9.502-10.046
						c3.923-2.561,8.401-4.387,13.364-5.512c4.942-1.12,9.924-1.69,14.908-1.69c4.115,0,8.483,0.49,13.082,1.417
						c4.619,0.953,8.936,2.381,12.849,4.257c3.943,1.886,7.212,4.176,9.784,6.929c2.562,2.763,3.842,6.006,3.842,9.773
						c0,1.882-0.635,3.738-1.916,5.512c-1.301,1.805-3.41,2.694-6.294,2.694c-3.278,0-5.738-1.877-7.454-5.638
						c-1.552-3.253-4.528-5.704-9.006-7.318c-4.448-1.639-9.401-2.456-14.887-2.456c-2.925,0-5.871,0.212-8.876,0.661
						c-3.005,0.429-5.679,1.275-8.079,2.567c-2.431,1.276-4.428,3.026-6.062,5.255c-1.644,2.244-2.421,5.164-2.421,8.74
						c0,2.561,0.777,4.801,2.421,6.687c1.634,1.907,3.691,3.465,6.172,4.741c2.481,1.286,5.234,2.269,8.21,2.946
						c3.006,0.711,5.86,1.311,8.635,1.8c6.324,1.044,12.295,2.547,17.872,4.503c5.528,1.998,10.409,4.504,14.605,7.59
						c4.216,3.091,7.545,6.768,10.056,11.049c2.451,4.287,3.712,9.254,3.712,14.903c0,5.673-1.2,10.838-3.611,15.558
						c-2.37,4.716-5.699,8.73-9.875,12.088c-4.195,3.339-9.148,5.891-14.776,7.706c-5.659,1.786-11.66,2.683-17.984,2.683
						c-10.813,0-20.284-2.472-28.413-7.454c-8.14-4.942-13.556-11.831-16.33-20.54c-0.151-0.515-0.231-1.307-0.231-2.321
						c0-2.234,0.726-4.195,2.178-5.92c1.443-1.704,3.389-2.567,5.78-2.567c1.886,0,3.56,0.579,5.023,1.664
						c1.452,1.125,2.593,2.628,3.469,4.503c2.209,5.488,6.032,9.632,11.398,12.447c5.416,2.839,11.114,4.262,17.127,4.262
						c8.371,0,15.523-1.942,21.434-5.759c5.931-3.868,8.866-9.305,8.866-16.35c0-5.649-2.916-10.424-8.725-14.383
						c-5.81-3.959-13.021-6.516-21.574-7.696c-12.346-1.74-22.331-5.129-29.937-10.142
						C1250.617,201.435,1246.824,194.126,1246.824,184.52z"/>
					<path d="M1359.166,147.543c6.051,1.498,9.037,4.171,9.037,8.023v112.685c0,4.68-2.986,7.524-9.037,8.523h-0.495
						c-4.781,0-7.716-3.137-8.896-9.41V158.321C1350.542,151.143,1353.649,147.543,1359.166,147.543z"/>
					<path d="M822.33,270.753c2.35,2.229,6.223,3.41,8.826,3.793c3.803,0.574,6.899-0.273,9.007-2.381
						c2.441-2.421,3.62-5.255,3.62-8.705c0-2.481-1.12-4.881-3.308-7.06l-76.867-76.328l70.352-65.118
						c2.239-2.234,3.348-4.795,3.348-7.852c0-2.814-1.018-5.321-3.086-7.641c-2.038-2.29-4.196-3.364-6.808-3.364
						c-3.339,0-8.544,1.831-11.529,4.943l-80.57,74.967v-2.921v-66.09l-0.04-0.575c-0.252-3.252-2.451-10.323-10.49-10.323
						c-10.197,0-12.457,7.863-12.457,10.899v156.606c0,2.814,2.764,10.853,11.175,10.883c4.196,0,7.162-2.703,8.574-4.316
						c2.088-2.391,3.238-5.145,3.238-6.546v-75.96V184.6L822.33,270.753z"/>
				</g>
			</g>
		</g>
	</g>
</g>
<g id="Guideline">
</g>
</svg>
