<?xml version="1.0" encoding="utf-8"?>
<!-- Generator: Adobe Illustrator 21.0.2, SVG Export Plug-In . SVG Version: 6.00 Build 0)  -->
<svg version="1.1" id="Layer_1" xmlns="http://www.w3.org/2000/svg" xmlns:xlink="http://www.w3.org/1999/xlink" x="0px" y="0px"
	 viewBox="0 0 146 54" style="enable-background:new 0 0 146 54;" xml:space="preserve">
<style type="text/css">
	.st0{fill:#FFFFFF;}
</style>
<g>
	<g>
		<g>
			<g>
				<path class="st0" d="M19.7,5.7L19.7,5.7c1.4,0,2.8,0.1,4.1,0.4C22.5,5.9,21.1,5.7,19.7,5.7L19.7,5.7L19.7,5.7z"/>
				<path class="st0" d="M18.3,7.3c-3.4,4.2-4.9,9.7-4.1,15.1c0.2-0.3,0.4-0.6,0.7-0.9c3.9-4.9,9.7-7.6,16-7.6
					c1.7,0,3.4,0.2,5.1,0.6c-1.1-1.7-2.5-3.2-4.1-4.5c-3.5-2.8-7.7-4.3-12.1-4.3C19.3,6.2,18.8,6.8,18.3,7.3z"/>
				<path class="st0" d="M13.8,24.8c-3.4,5.9-3.4,13.3,0,19.3c1.9,0.6,3.8,0.9,5.8,0.9c4.8,0,9.4-1.7,13-4.9
					c-4.3-0.2-8.4-1.8-11.8-4.5C17.4,32.8,14.9,29,13.8,24.8z"/>
				<path class="st0" d="M48.9,31.9c0.4-0.5,0.8-1,1.1-1.6c-0.9-4.4-3.4-8.4-6.9-11.2c-1.6-1.3-3.4-2.3-5.2-3
					c1.7,3.3,2.4,7,2.1,10.7c-0.3,4.2-1.8,8.1-4.5,11.4c-0.3,0.3-0.5,0.7-0.8,1C40.2,38.9,45.4,36.2,48.9,31.9z"/>
				<path class="st0" d="M4.3,13.1c-6.8,8.4-5.4,20.8,3,27.6c1.6,1.3,3.4,2.3,5.2,3c-3.2-6.4-2.9-14.1,0.9-20.1
					c-1.1-5.9,0.4-12,4.2-16.7c0.3-0.3,0.6-0.7,0.8-1C13,6.1,7.8,8.7,4.3,13.1z"/>
				<path class="st0" d="M37.2,14.9c2.3,0.8,4.5,2,6.4,3.5c3.4,2.7,5.9,6.6,7,10.8c2.3-4,3-8.6,2.2-13.1c-0.8-4.6-3.3-8.8-7-11.8
					C42.4,1.5,38.1,0,33.6,0c-4.8,0-9.4,1.7-13,4.9c4.3,0.2,8.4,1.8,11.8,4.5C34.4,10.9,36,12.8,37.2,14.9z"/>
				<path class="st0" d="M50.2,31.6c-0.2,0.3-0.4,0.6-0.7,0.9c-3.9,4.8-9.6,7.6-15.8,7.6c-3.8,3.7-8.9,5.7-14.2,5.7
					c-1.7,0-3.4-0.2-5.1-0.6c1.1,1.7,2.5,3.2,4.1,4.5C22,52.5,26.4,54,30.8,54c6,0,11.5-2.7,15.3-7.3C49.5,42.5,51,36.9,50.2,31.6z"
					/>
			</g>
			<g>
				<path class="st0" d="M63.5,40.9L63.5,40.9c-0.4,0.5-0.9,0.8-1.6,0.8c-0.7,0-1.2-0.2-1.5-0.7c-0.4-0.4-0.5-1.1-0.5-1.9
					c0-0.8,0.2-1.5,0.5-1.9c0.4-0.5,0.9-0.7,1.5-0.7c0.7,0,1.2,0.2,1.6,0.7h0.1v-0.4v-0.3v-2h0.8v7.1h-0.6L63.5,40.9z M62,41.1
					c0.5,0,0.9-0.1,1.1-0.4c0.2-0.3,0.3-0.7,0.3-1.4v-0.2c0-0.7-0.1-1.2-0.4-1.5c-0.2-0.3-0.6-0.5-1.1-0.5c-0.4,0-0.8,0.2-1,0.5
					s-0.4,0.8-0.4,1.5c0,0.6,0.1,1.1,0.4,1.4C61.2,40.9,61.6,41.1,62,41.1z"/>
				<path class="st0" d="M66,35.3c0-0.2,0-0.3,0.1-0.4c0.1-0.1,0.2-0.1,0.3-0.1c0.1,0,0.2,0,0.3,0.1c0.1,0.1,0.1,0.2,0.1,0.4
					s0,0.3-0.1,0.4c-0.1,0.1-0.2,0.1-0.3,0.1c-0.1,0-0.2,0-0.3-0.1C66.1,35.6,66,35.4,66,35.3z M66.8,41.6H66v-5h0.8V41.6z"/>
				<path class="st0" d="M72.8,36.6v0.5l-0.9,0.1c0.1,0.1,0.2,0.2,0.2,0.4c0.1,0.2,0.1,0.4,0.1,0.6c0,0.5-0.2,0.9-0.5,1.2
					s-0.8,0.4-1.4,0.4c-0.1,0-0.3,0-0.4,0c-0.3,0.2-0.5,0.4-0.5,0.6c0,0.1,0.1,0.2,0.2,0.3s0.3,0.1,0.6,0.1H71c0.5,0,1,0.1,1.2,0.3
					c0.3,0.2,0.4,0.6,0.4,1c0,0.6-0.2,1-0.7,1.3c-0.4,0.3-1.1,0.4-1.9,0.4c-0.7,0-1.2-0.1-1.5-0.4c-0.4-0.2-0.5-0.6-0.5-1
					c0-0.3,0.1-0.6,0.3-0.8c0.2-0.2,0.5-0.4,0.8-0.5C69,41,68.9,41,68.8,40.8c-0.1-0.1-0.1-0.3-0.1-0.4c0-0.2,0-0.3,0.1-0.5
					c0.1-0.1,0.2-0.3,0.5-0.4c-0.3-0.1-0.5-0.3-0.6-0.5c-0.2-0.3-0.2-0.5-0.2-0.9c0-0.5,0.2-1,0.5-1.3s0.8-0.4,1.4-0.4
					c0.3,0,0.5,0,0.7,0.1h1.7V36.6z M68.8,42.4c0,0.3,0.1,0.5,0.3,0.6c0.2,0.1,0.6,0.2,1,0.2c0.6,0,1.1-0.1,1.4-0.3s0.5-0.4,0.5-0.8
					c0-0.3-0.1-0.5-0.3-0.6c-0.2-0.1-0.5-0.2-0.9-0.2h-0.9c-0.3,0-0.6,0.1-0.8,0.2C68.9,41.9,68.8,42.1,68.8,42.4z M69.2,38.2
					c0,0.3,0.1,0.6,0.3,0.8c0.2,0.2,0.5,0.3,0.8,0.3c0.7,0,1.1-0.4,1.1-1.1c0-0.8-0.4-1.1-1.1-1.1c-0.4,0-0.6,0.1-0.8,0.3
					C69.3,37.5,69.2,37.8,69.2,38.2z"/>
				<path class="st0" d="M73.9,35.3c0-0.2,0-0.3,0.1-0.4c0.1-0.1,0.2-0.1,0.3-0.1c0.1,0,0.2,0,0.3,0.1c0.1,0.1,0.1,0.2,0.1,0.4
					s0,0.3-0.1,0.4c-0.1,0.1-0.2,0.1-0.3,0.1c-0.1,0-0.2,0-0.3-0.1C74,35.6,73.9,35.4,73.9,35.3z M74.8,41.6H74v-5h0.8V41.6z"/>
				<path class="st0" d="M78.2,41.1c0.1,0,0.3,0,0.4,0s0.2,0,0.3-0.1v0.6c-0.1,0-0.2,0.1-0.4,0.1c-0.2,0-0.3,0-0.4,0
					c-1,0-1.4-0.5-1.4-1.5v-3H76v-0.4l0.7-0.3l0.3-1.1h0.4v1.2h1.4v0.6h-1.4v2.9c0,0.3,0.1,0.5,0.2,0.7C77.8,41,78,41.1,78.2,41.1z"
					/>
				<path class="st0" d="M80.1,35.3c0-0.2,0-0.3,0.1-0.4c0.1-0.1,0.2-0.1,0.3-0.1c0.1,0,0.2,0,0.3,0.1c0.1,0.1,0.1,0.2,0.1,0.4
					s0,0.3-0.1,0.4c-0.1,0.1-0.2,0.1-0.3,0.1c-0.1,0-0.2,0-0.3-0.1C80.1,35.6,80.1,35.4,80.1,35.3z M80.9,41.6h-0.8v-5h0.8V41.6z"/>
				<polygon class="st0" points="85.9,41.6 82.3,41.6 82.3,41.1 85,37.2 82.5,37.2 82.5,36.6 85.9,36.6 85.9,37.2 83.2,41 85.9,41 
									"/>
				<path class="st0" d="M87.3,35.3c0-0.2,0-0.3,0.1-0.4c0.1-0.1,0.2-0.1,0.3-0.1c0.1,0,0.2,0,0.3,0.1c0.1,0.1,0.1,0.2,0.1,0.4
					s0,0.3-0.1,0.4c-0.1,0.1-0.2,0.1-0.3,0.1c-0.1,0-0.2,0-0.3-0.1C87.3,35.6,87.3,35.4,87.3,35.3z M88.1,41.6h-0.8v-5h0.8V41.6z"/>
				<path class="st0" d="M93.3,41.6v-3.2c0-0.4-0.1-0.7-0.3-0.9c-0.2-0.2-0.5-0.3-0.9-0.3c-0.5,0-0.9,0.1-1.1,0.4
					c-0.2,0.3-0.4,0.7-0.4,1.4v2.6h-0.8v-5h0.6l0.1,0.7l0,0c0.2-0.2,0.4-0.4,0.7-0.6c0.3-0.1,0.6-0.2,0.9-0.2c0.6,0,1.1,0.1,1.4,0.4
					c0.3,0.3,0.5,0.8,0.5,1.4v3.3C94,41.6,93.3,41.6,93.3,41.6z"/>
				<path class="st0" d="M100,36.6v0.5l-1,0.1c0.1,0.1,0.2,0.2,0.2,0.4c0.1,0.2,0.1,0.4,0.1,0.6c0,0.5-0.2,0.9-0.5,1.2
					s-0.8,0.4-1.4,0.4c-0.1,0-0.3,0-0.4,0c-0.3,0.2-0.5,0.4-0.5,0.6c0,0.1,0.1,0.2,0.2,0.3s0.3,0.1,0.6,0.1h0.9c0.5,0,1,0.1,1.2,0.3
					c0.3,0.2,0.4,0.6,0.4,1c0,0.6-0.2,1-0.7,1.3c-0.4,0.3-1.1,0.4-1.9,0.4c-0.7,0-1.2-0.1-1.5-0.4c-0.4-0.2-0.5-0.6-0.5-1
					c0-0.3,0.1-0.6,0.3-0.8c0.2-0.2,0.5-0.4,0.8-0.5C96.2,41,96.1,41,96,40.8c-0.1-0.1-0.1-0.3-0.1-0.4c0-0.2,0-0.3,0.1-0.5
					c0.1-0.1,0.3-0.3,0.5-0.4c-0.3-0.1-0.5-0.3-0.6-0.5c-0.2-0.3-0.2-0.5-0.2-0.9c0-0.5,0.2-1,0.5-1.3s0.8-0.4,1.4-0.4
					c0.3,0,0.5,0,0.7,0.1h1.7V36.6z M96,42.4c0,0.3,0.1,0.5,0.3,0.6c0.2,0.1,0.6,0.2,1,0.2c0.6,0,1.1-0.1,1.4-0.3s0.5-0.4,0.5-0.8
					c0-0.3-0.1-0.5-0.3-0.6c-0.2-0.1-0.5-0.2-0.9-0.2h-0.9c-0.3,0-0.6,0.1-0.8,0.2C96.1,41.9,96,42.1,96,42.4z M96.4,38.2
					c0,0.3,0.1,0.6,0.3,0.8c0.2,0.2,0.5,0.3,0.8,0.3c0.7,0,1.1-0.4,1.1-1.1c0-0.8-0.4-1.1-1.1-1.1c-0.4,0-0.6,0.1-0.8,0.3
					C96.5,37.5,96.4,37.8,96.4,38.2z"/>
				<path class="st0" d="M105.9,41.7c-0.7,0-1.3-0.2-1.7-0.7c-0.4-0.4-0.6-1.1-0.6-1.9c0-0.8,0.2-1.5,0.6-1.9c0.4-0.5,1-0.7,1.7-0.7
					c0.2,0,0.5,0,0.7,0.1s0.4,0.1,0.6,0.2l-0.2,0.6c-0.2-0.1-0.3-0.1-0.5-0.2c-0.2,0-0.4-0.1-0.5-0.1c-1,0-1.5,0.6-1.5,1.9
					c0,0.6,0.1,1.1,0.4,1.4c0.2,0.3,0.6,0.5,1.1,0.5c0.4,0,0.8-0.1,1.3-0.3v0.7C106.8,41.6,106.4,41.7,105.9,41.7z"/>
				<path class="st0" d="M110.8,36.5c0.2,0,0.4,0,0.6,0.1l-0.1,0.7c-0.2,0-0.4-0.1-0.5-0.1c-0.4,0-0.8,0.2-1,0.5
					c-0.3,0.3-0.4,0.7-0.4,1.2v2.7h-0.8v-5h0.6l0.1,0.9l0,0c0.2-0.3,0.4-0.6,0.7-0.8C110.2,36.6,110.5,36.5,110.8,36.5z"/>
				<path class="st0" d="M114.7,41.7c-0.7,0-1.3-0.2-1.7-0.7c-0.4-0.4-0.6-1.1-0.6-1.9c0-0.8,0.2-1.4,0.6-1.9s0.9-0.7,1.6-0.7
					c0.6,0,1.1,0.2,1.5,0.6c0.4,0.4,0.5,1,0.5,1.6v0.5h-3.4c0,0.6,0.2,1,0.4,1.3c0.3,0.3,0.7,0.5,1.2,0.5s1.1-0.1,1.6-0.3v0.7
					c-0.3,0.1-0.5,0.2-0.8,0.3C115.3,41.7,115,41.7,114.7,41.7z M114.5,37.2c-0.4,0-0.7,0.1-1,0.4c-0.2,0.3-0.4,0.6-0.4,1.1h2.6
					c0-0.5-0.1-0.8-0.3-1.1C115.2,37.3,114.9,37.2,114.5,37.2z"/>
				<path class="st0" d="M121.1,41.6l-0.1-0.7l0,0c-0.3,0.3-0.5,0.5-0.7,0.6s-0.6,0.2-0.9,0.2c-0.5,0-0.9-0.1-1.2-0.4
					c-0.3-0.3-0.4-0.6-0.4-1.1c0-1,0.8-1.5,2.4-1.6h0.8v-0.3c0-0.4-0.1-0.7-0.3-0.9c-0.2-0.2-0.4-0.3-0.8-0.3s-0.9,0.1-1.4,0.4
					l-0.2-0.6c0.2-0.1,0.5-0.2,0.8-0.3s0.6-0.1,0.9-0.1c0.6,0,1,0.1,1.3,0.4c0.3,0.3,0.4,0.7,0.4,1.3v3.4
					C121.7,41.6,121.1,41.6,121.1,41.6z M119.4,41.1c0.5,0,0.8-0.1,1.1-0.4c0.3-0.3,0.4-0.6,0.4-1.1v-0.4h-0.8c-0.6,0-1,0.1-1.3,0.3
					s-0.4,0.4-0.4,0.8c0,0.3,0.1,0.5,0.2,0.6C118.9,41,119.1,41.1,119.4,41.1z"/>
				<path class="st0" d="M125.1,41.1c0.1,0,0.3,0,0.4,0s0.2,0,0.3-0.1v0.6c-0.1,0-0.2,0.1-0.4,0.1c-0.2,0-0.3,0-0.4,0
					c-1,0-1.5-0.5-1.5-1.5v-3h-0.7v-0.4l0.7-0.3l0.3-1.1h0.4v1.2h1.5v0.6h-1.5v2.9c0,0.3,0.1,0.5,0.2,0.7
					C124.7,41,124.8,41.1,125.1,41.1z"/>
				<path class="st0" d="M126.9,35.3c0-0.2,0-0.3,0.1-0.4c0.1-0.1,0.2-0.1,0.3-0.1c0.1,0,0.2,0,0.3,0.1c0.1,0.1,0.1,0.2,0.1,0.4
					s0,0.3-0.1,0.4c-0.1,0.1-0.2,0.1-0.3,0.1c-0.1,0-0.2,0-0.3-0.1C127,35.6,126.9,35.4,126.9,35.3z M127.8,41.6H127v-5h0.8V41.6z"
					/>
				<path class="st0" d="M130.7,41.6l-1.9-5h0.8l1.1,3c0.2,0.7,0.4,1.1,0.4,1.3l0,0c0-0.2,0.1-0.5,0.3-1s0.6-1.6,1.2-3.3h0.8l-1.9,5
					H130.7z"/>
				<path class="st0" d="M134.4,35.3c0-0.2,0-0.3,0.1-0.4c0.1-0.1,0.2-0.1,0.3-0.1s0.2,0,0.3,0.1s0.1,0.2,0.1,0.4s0,0.3-0.1,0.4
					c-0.1,0.1-0.2,0.1-0.3,0.1s-0.2,0-0.3-0.1C134.5,35.6,134.4,35.4,134.4,35.3z M135.3,41.6h-0.8v-5h0.8V41.6z"/>
				<path class="st0" d="M138.7,41.1c0.1,0,0.3,0,0.4,0c0.1,0,0.2,0,0.3-0.1v0.6c-0.1,0-0.2,0.1-0.4,0.1s-0.3,0-0.4,0
					c-1,0-1.4-0.5-1.4-1.5v-3h-0.7v-0.4l0.7-0.3l0.3-1.1h0.4v1.2h1.4v0.6h-1.4v2.9c0,0.3,0.1,0.5,0.2,0.7
					C138.3,41,138.5,41.1,138.7,41.1z"/>
				<path class="st0" d="M139.8,36.6h0.8l1.1,2.8c0.2,0.6,0.4,1.1,0.4,1.4l0,0c0-0.2,0.1-0.4,0.3-0.8c0.1-0.4,0.5-1.5,1.2-3.5h0.8
					l-2.1,5.7c-0.2,0.6-0.5,1-0.7,1.2c-0.3,0.2-0.6,0.4-1,0.4c-0.2,0-0.5,0-0.7-0.1v-0.6c0.2,0,0.4,0.1,0.6,0.1
					c0.5,0,0.9-0.3,1.1-0.9l0.3-0.7L139.8,36.6z"/>
				<path class="st0" d="M66.3,15.7c2.6,0,4.6,1.2,6.1,3.7c0.5,1,0.7,2,0.7,3.2v0.3c-0.1,0.7-0.4,1-0.9,1H61.7
					c0.4,1.3,1.2,2.3,2.5,3c0.8,0.3,1.5,0.4,2.1,0.4c0.8,0,1.6-0.2,2.6-0.7h0.3c0.6,0.1,0.9,0.4,0.9,0.9v0.1c0,0.8-1.2,1.4-3.6,1.7
					h-0.3c-2.4,0-4.4-1.1-5.9-3.4c-0.6-1.1-0.9-2.2-0.9-3.4c0-2.5,1.2-4.5,3.5-5.9C64.2,15.9,65.3,15.7,66.3,15.7z M61.6,21.9h9.5
					c0-0.7-0.4-1.6-1.2-2.6c-1.1-1-2.2-1.5-3.2-1.5h-0.5c-1.6,0-2.9,0.8-3.9,2.3C61.9,20.6,61.7,21.2,61.6,21.9z"/>
				<path class="st0" d="M92.2,15.6c0.6,0.2,1,0.4,1,0.8v1.1c1.5-1.3,3-1.9,4.7-1.9c0.9,0,1.8,0.2,2.9,0.6c0.3,0.3,0.4,0.5,0.4,0.8
					v0.1c-0.1,0.6-0.4,0.9-0.9,0.9h-0.1c-0.9-0.3-1.6-0.4-2.1-0.4h-0.3c-2,0-3.4,1-4.3,3c-0.2,0.5-0.3,1.2-0.3,1.8v5.9
					c0,0.5-0.3,0.8-1,0.9h-0.1c-0.5,0-0.8-0.3-0.9-1V16.7C91.3,16,91.6,15.6,92.2,15.6z"/>
				<path class="st0" d="M107.7,15.7c2.6,0,4.7,1.2,6.1,3.7c0.5,1,0.7,2,0.7,3.2v0.3c-0.1,0.7-0.4,1-0.9,1h-10.5
					c0.4,1.3,1.2,2.3,2.5,3c0.8,0.3,1.5,0.4,2.1,0.4c0.8,0,1.6-0.2,2.6-0.7h0.3c0.6,0.1,0.9,0.4,0.9,0.9v0.1c0,0.8-1.2,1.4-3.6,1.7
					h-0.3c-2.4,0-4.4-1.1-5.9-3.4c-0.6-1.1-0.9-2.2-0.9-3.4c0-2.5,1.2-4.5,3.5-5.9C105.6,15.9,106.7,15.7,107.7,15.7z M103,21.9h9.5
					c0-0.7-0.4-1.6-1.2-2.6c-1.1-1-2.2-1.5-3.2-1.5h-0.5c-1.6,0-2.9,0.8-3.9,2.3C103.3,20.6,103.1,21.2,103,21.9z"/>
				<path class="st0" d="M122.8,15.7c2.6,0,4.6,1.3,6.1,3.8c0.5,1,0.7,2.1,0.7,3.2v5.7c0,0.5-0.3,0.8-0.9,0.9h-0.1
					c-0.4,0-0.7-0.2-0.9-0.7v-0.1l0.1-1.2v-0.1c-1.5,1.4-3,2.1-4.7,2.1h-0.4c-2.3,0-4.2-1.2-5.8-3.5c-0.6-1.1-0.8-2.2-0.8-3.4
					c0-2.5,1.2-4.5,3.7-6C120.7,15.9,121.8,15.7,122.8,15.7z M117.9,22.4v0.1c0,2,1,3.5,3,4.5c0.6,0.2,1.2,0.3,1.7,0.3h0.4
					c1.6,0,3-0.8,4.1-2.5c0.4-0.8,0.6-1.5,0.6-2.2v-0.2c0-1.9-0.9-3.4-2.8-4.4c-0.6-0.3-1.3-0.4-2-0.4h-0.1c-2,0-3.5,1-4.5,3.1
					C118,21.4,117.9,21.9,117.9,22.4z"/>
				<path class="st0" d="M131.7,19.5c0-0.6,0.1-1.2,0.4-1.6c0.3-0.4,0.6-0.8,1-1.1c0.4-0.3,0.9-0.5,1.4-0.6s1-0.2,1.6-0.2
					c0.4,0,0.9,0.1,1.4,0.1c0.5,0.1,0.9,0.3,1.4,0.4c0.4,0.2,0.8,0.4,1,0.7c0.3,0.3,0.4,0.6,0.4,1c0,0.2-0.1,0.4-0.2,0.6
					c-0.1,0.2-0.4,0.3-0.7,0.3s-0.6-0.2-0.8-0.6c-0.2-0.3-0.5-0.6-1-0.8c-0.5-0.2-1-0.3-1.6-0.3c-0.3,0-0.6,0-0.9,0.1
					c-0.3,0-0.6,0.1-0.9,0.3c-0.3,0.1-0.5,0.3-0.6,0.6c-0.2,0.2-0.3,0.5-0.3,0.9c0,0.3,0.1,0.5,0.3,0.7s0.4,0.4,0.7,0.5
					s0.6,0.2,0.9,0.3c0.3,0.1,0.6,0.1,0.9,0.2c0.7,0.1,1.3,0.3,1.9,0.5c0.6,0.2,1.1,0.5,1.5,0.8s0.8,0.7,1.1,1.2s0.4,1,0.4,1.6
					s-0.1,1.1-0.4,1.6c-0.3,0.5-0.6,0.9-1,1.3s-1,0.6-1.6,0.8c-0.6,0.2-1.2,0.3-1.9,0.3c-1.1,0-2.1-0.3-3-0.8s-1.4-1.2-1.7-2.2
					c0-0.1,0-0.1,0-0.2c0-0.2,0.1-0.4,0.2-0.6c0.2-0.2,0.4-0.3,0.6-0.3c0.2,0,0.4,0.1,0.5,0.2c0.2,0.1,0.3,0.3,0.4,0.5
					c0.2,0.6,0.6,1,1.2,1.3c0.6,0.3,1.2,0.5,1.8,0.5c0.9,0,1.6-0.2,2.3-0.6c0.6-0.4,0.9-1,0.9-1.7c0-0.6-0.3-1.1-0.9-1.5
					c-0.6-0.4-1.4-0.7-2.3-0.8c-1.3-0.2-2.4-0.5-3.2-1.1C132.1,21.3,131.7,20.5,131.7,19.5z"/>
				<path class="st0" d="M143.6,15.6c0.6,0.2,1,0.4,1,0.8v11.9c0,0.5-0.3,0.8-1,0.9h-0.1c-0.5,0-0.8-0.3-0.9-1V16.7
					C142.7,16,143,15.6,143.6,15.6z"/>
				<path class="st0" d="M86.9,28.6c0.2,0.2,0.7,0.4,0.9,0.4c0.4,0.1,0.7,0,1-0.3s0.4-0.6,0.4-0.9s-0.1-0.5-0.3-0.7L80.7,19l7.4-6.9
					c0.2-0.2,0.4-0.5,0.4-0.8s-0.1-0.6-0.3-0.8c-0.2-0.2-0.4-0.4-0.7-0.4c-0.4,0-0.9,0.2-1.2,0.5l-8.5,7.9v-0.3v-7v-0.1
					c0-0.3-0.3-1.1-1.1-1.1c-1.1,0-1.3,0.8-1.3,1.2v16.5c0,0.3,0.3,1.1,1.2,1.1c0.4,0,0.8-0.3,0.9-0.5c0.2-0.3,0.3-0.5,0.3-0.7v-8
					v-0.3L86.9,28.6z"/>
			</g>
		</g>
	</g>
</g>
</svg>
