<?xml version="1.0" encoding="UTF-8"?>
<svg width="34px" height="34px" viewBox="0 0 34 34" version="1.1" xmlns="http://www.w3.org/2000/svg" xmlns:xlink="http://www.w3.org/1999/xlink">
    <!-- Generator: Sketch 48.2 (47327) - http://www.bohemiancoding.com/sketch -->
    <title>settings</title>
    <desc>Created with Sketch.</desc>
    <defs></defs>
    <g id="Nonpublic--My-Data---Proposal-Information---Beneficiary" stroke="none" stroke-width="1" fill="none" fill-rule="evenodd" transform="translate(-17.000000, -854.000000)">
        <g id="settings" transform="translate(17.000000, 854.000000)" fill="#4A4A4A" fill-rule="nonzero">
            <path d="M30.9951726,18.0288632 C31.0459724,17.3418919 31.046039,16.658905 30.9951726,15.9710704 L33.5734947,13.5882196 C34.0299594,13.1663415 34.1324923,12.4860108 33.8205603,11.9492501 L29.8099777,5.04812686 C29.4990458,4.51322556 28.8590485,4.26240964 28.2655844,4.44356554 L24.8965991,5.47126666 C24.3224016,5.08212679 23.7204708,4.7360845 23.0970735,4.4365929 L22.3098103,1.03022455 C22.1705442,0.427256978 21.6316799,0 21.0105493,0 L12.9894507,0 C12.3683201,0 11.8294558,0.427256978 11.690123,1.03022455 L10.9029265,4.4365929 C10.2794625,4.7360845 9.67759845,5.08212679 9.10340094,5.47126666 L5.73441556,4.44356554 C5.14088481,4.26240964 4.50088758,4.51322556 4.19002227,5.04812686 L0.179439673,11.9492501 C-0.132492306,12.4860108 -0.0299594177,13.1663415 0.426505268,13.5882196 L3.00482741,15.9710704 C2.95402763,16.6580417 2.95396096,17.3410286 3.00482741,18.0288632 L0.426505268,20.411714 C-0.0299594177,20.8335921 -0.132492306,21.5139228 0.179439673,22.0506835 L4.1899556,28.9518731 C4.50082092,29.4867744 5.14088481,29.737524 5.7343489,29.5564345 L9.10333427,28.5287333 C9.67753178,28.9178732 10.2794625,29.2639155 10.9028598,29.5634071 L11.690123,32.9697754 C11.8294558,33.572743 12.3683201,34 12.9894507,34 L21.0104826,34 C21.6316132,34 22.1704776,33.572743 22.3098103,32.9697754 L23.0970735,29.5634071 C23.7205375,29.2639155 24.3224016,28.9178732 24.8965991,28.5287333 L28.2655844,29.5564345 C28.8590485,29.7374575 29.4991124,29.4867744 29.8099777,28.9518731 L33.8204937,22.0506835 C34.1324256,21.5139228 34.0298928,20.8335921 33.5734281,20.411714 L30.9951726,18.0288632 Z M28.280651,15.6074969 C28.3952505,16.5346591 28.3952505,17.4649425 28.280651,18.3924367 C28.2282513,18.8157093 28.3831839,19.2383179 28.6970492,19.5283798 L30.979306,21.6376374 L28.0330521,26.7074791 L25.0469317,25.7965863 C24.6381335,25.6717428 24.1944021,25.7498364 23.8532703,26.0064297 C23.1032735,26.570284 22.2870771,27.0395097 21.4273475,27.4009582 C21.0330158,27.5667743 20.7425504,27.91109 20.6464842,28.3265931 L19.9492872,31.3436888 L14.0507795,31.3436888 L13.3535158,28.3265931 C13.2575162,27.9110236 12.9669842,27.5667743 12.5726525,27.4009582 C11.7129896,27.0395097 10.8967265,26.570284 10.1467297,26.0064297 C9.80559789,25.7499028 9.36173315,25.6717428 8.95306826,25.7965863 L5.96694789,26.7074791 L3.02069401,21.6376374 L5.30295077,19.5283798 C5.61681607,19.2383179 5.77174873,18.8157093 5.71934896,18.3924367 C5.60474946,17.4652745 5.60474946,16.5349911 5.71934896,15.6074969 C5.77174873,15.1842242 5.61681607,14.7616157 5.30295077,14.4715538 L3.02069401,12.3622962 L5.96694789,7.29245451 L8.95306826,8.20334726 C9.36166649,8.32805795 9.80553123,8.25003076 10.1467297,7.99350392 C10.8967265,7.42964955 11.7129229,6.96042391 12.5726525,6.59897539 C12.9669842,6.43315931 13.2574496,6.08884358 13.3535158,5.67334048 L14.0507128,2.65624481 L19.9492205,2.65624481 L20.6464842,5.67334048 C20.7424838,6.08890998 21.0330158,6.43315931 21.4273475,6.59897539 C22.2870104,6.96042391 23.1032735,7.42964955 23.8532703,7.99350392 C24.1944021,8.25003076 24.6382668,8.32812436 25.0469317,8.20334726 L28.0330521,7.29245451 L30.979306,12.3622962 L28.6970492,14.4715538 C28.3831173,14.7616157 28.2281846,15.1842242 28.280651,15.6074969 Z" id="Shape"></path>
            <path d="M17.5,12 C14.4673,12 12,14.4673 12,17.5 C12,20.5327 14.4673,23 17.5,23 C20.5327,23 23,20.5327 23,17.5 C23,14.4673 20.5327,12 17.5,12 Z M17.5,20.25 C15.98365,20.25 14.75,19.01635 14.75,17.5 C14.75,15.98365 15.98365,14.75 17.5,14.75 C19.01635,14.75 20.25,15.98365 20.25,17.5 C20.25,19.01635 19.0164187,20.25 17.5,20.25 Z" id="Shape"></path>
        </g>
    </g>
</svg>