<?xml version="1.0" encoding="UTF-8"?>
<svg width="28px" height="36px" viewBox="0 0 28 36" version="1.1" xmlns="http://www.w3.org/2000/svg" xmlns:xlink="http://www.w3.org/1999/xlink">
    <!-- Generator: Sketch 48.2 (47327) - http://www.bohemiancoding.com/sketch -->
    <title>Page 1</title>
    <desc>Created with Sketch.</desc>
    <defs></defs>
    <g id="13.2.Chubb---Dashboard-nonpublic-expand-menu" stroke="none" stroke-width="1" fill="none" fill-rule="evenodd" transform="translate(-18.000000, -936.000000)">
        <g id="Page-1" transform="translate(18.000000, 936.000000)" fill="#4A4A4A">
            <path d="M21.908075,22.8905378 C21.835825,22.8905378 21.763575,22.8753822 21.695325,22.8453156 C21.513325,22.7636711 21.396325,22.5857156 21.396325,22.39016 L21.396325,20.98656 L16.536325,21.0090489 C16.400575,21.0114933 16.269325,20.9572267 16.173075,20.86336 C16.076575,20.7694933 16.022325,20.6416489 16.022325,20.5086711 L16.022325,14.9328933 C16.022325,14.6569156 16.251075,14.43276 16.533325,14.4325156 L21.396075,14.4273822 L21.396825,12.7443822 C21.396825,12.5466267 21.515825,12.3674489 21.700825,12.2872711 C21.885575,12.2068489 22.101575,12.2408267 22.251575,12.3733156 L27.822575,17.2986267 C27.931075,17.3946933 27.992325,17.5318267 27.991075,17.6750711 C27.989325,17.8183156 27.925075,17.9539822 27.814325,18.0478489 L22.243075,22.7683156 C22.148325,22.8484933 22.028825,22.8905378 21.908075,22.8905378 Z M21.908075,19.98336 C22.043325,19.98336 22.173075,20.0359156 22.269075,20.1292933 C22.365575,20.2229156 22.419575,20.3505156 22.419575,20.4837378 L22.419575,21.29456 L26.707325,17.6616267 L22.419575,13.8707822 L22.419075,14.9272711 C22.418825,15.2032489 22.190325,15.4269156 21.908075,15.42716 L17.045575,15.4325378 L17.045575,20.0060933 L21.905575,19.98336 L21.908075,19.98336 Z M27,11 L24.6945245,11 L24.6945245,5.70498732 L17,5.70498732 L17,3 L25.8472622,3 C26.483804,3 27,3.60564666 27,4.35249366 L27,11 Z M26.7466673,35 L17,35 L17,32.5028717 L25.4933345,32.5028717 L25.4933345,25 L28,25 L28,33.7514358 C28,34.4411427 27.4387576,35 26.7466673,35 Z" id="Combined-Shape"></path>
            <path d="M10,19 C10,20.1045079 9.55224615,21 9.00012308,21 C8.44775385,21 8,20.1045079 8,19 C8,17.8952381 8.44775385,17 9.00012308,17 C9.55224615,17 10,17.8952381 10,19" id="Fill-11"></path>
            <path d="M10.8874733,1.83880552 L10.8898067,1.83880552 L10.8874733,1.83880552 Z M2.33417333,29.831909 C5.32434,30.90024 8.33667333,31.9839641 11.3112067,33.0612331 C11.3413067,29.7904469 11.37094,26.5201572 11.3994067,23.2501159 C11.45914,17.1199366 11.5205067,10.9912469 11.5835067,4.86230897 C11.5902733,4.2160469 11.59984,3.57028138 11.6101067,2.92426759 C11.46264,2.9652331 11.3144733,3.00545379 11.16584,3.04418483 L11.1656067,3.04418483 C8.26294,3.80291586 5.31174,4.56859862 2.38387333,5.32286069 C2.37827333,8.61077793 2.37057333,11.8974538 2.36100667,15.1838814 L2.33417333,29.831909 Z M12.4351733,36.0000745 C12.3308733,36.0000745 12.2258733,35.9851779 12.1232067,35.95464 L12.0046733,35.9206262 C11.8992067,35.8908331 11.81264,35.865509 11.7277067,35.8352193 C8.22864,34.5652883 4.67240667,33.2854262 1.15094,32.0284055 C0.625706667,31.840709 -9.33333333e-05,31.3878538 -9.33333333e-05,30.29544 L0.0276733333,15.1776745 C0.0377066667,11.6973434 0.0458733333,8.21875034 0.0517066667,4.74065379 C0.0517066667,3.50473655 0.873506667,3.15789517 1.22677333,3.06628138 C4.35250667,2.26186759 7.50857333,1.44355034 10.60934,0.633426207 L10.6091067,0.633426207 C11.0141733,0.527412414 11.4302067,0.406005517 11.8327067,0.288322759 C12.0347733,0.229233103 12.23684,0.170143448 12.43914,0.112543448 C12.5376067,0.0844882759 12.6388733,0.0703365517 12.74084,0.0703365517 L12.80244,0.0703365517 C13.1148733,0.0703365517 13.4144733,0.203908966 13.6338067,0.441012414 C13.85314,0.678115862 13.9737733,0.998888276 13.9688733,1.33157793 L13.9516067,2.42622621 C13.93854,3.24727448 13.92524,4.06832276 13.9166067,4.88961931 C13.8536067,11.0178124 13.79224,17.1462538 13.7325067,23.2746952 C13.70124,26.8831366 13.6685733,30.4928193 13.6349733,34.1027503 C13.6335733,34.2651228 13.6240067,34.4304745 13.61304,34.6062538 C13.6086067,34.6770124 13.6041733,34.7497572 13.6002067,34.8254814 C13.5810733,35.2011228 13.40304,35.5472193 13.11604,35.7666952 C12.9156067,35.9198814 12.6769067,36.0000745 12.4351733,36.0000745 Z" id="Fill-8"></path>
        </g>
    </g>
</svg>