<?xml version="1.0" encoding="utf-8"?>
<!-- Generator: Adobe Illustrator 21.0.2, SVG Export Plug-In . SVG Version: 6.00 Build 0)  -->
<svg version="1.1" id="Layer_1" xmlns="http://www.w3.org/2000/svg" xmlns:xlink="http://www.w3.org/1999/xlink" x="0px" y="0px"
	 viewBox="0 0 512 512" style="enable-background:new 0 0 512 512;" xml:space="preserve">
<style type="text/css">
	.st0{fill:#5E5E5E;}
</style>
<path class="st0" d="M437,75C388.7,26.6,324.4,0,256,0S123.3,26.6,75,75S0,187.6,0,256c0,68.4,26.6,132.7,75,181
	c48.4,48.4,112.6,75,181,75s132.7-26.6,181-75c48.4-48.4,75-112.6,75-181C512,187.6,485.4,123.3,437,75z M256,482
	C131.4,482,30,380.6,30,256C30,131.4,131.4,30,256,30s226,101.4,226,226C482,380.6,380.6,482,256,482z"/>
<path class="st0" d="M422.4,351.1c16.1-28.1,25.3-60.5,25.3-95.1s-9.2-67.1-25.3-95.1c-0.1-0.2-0.2-0.5-0.4-0.7
	c-0.2-0.3-0.4-0.6-0.6-0.9c-16.6-28.3-40.3-52-68.7-68.7c-0.3-0.2-0.6-0.4-0.9-0.6c-0.2-0.1-0.5-0.2-0.7-0.4
	c-28.1-16.1-60.5-25.3-95.1-25.3c-34.6,0-67.1,9.2-95.1,25.3c-0.2,0.1-0.5,0.2-0.7,0.4c-0.3,0.2-0.6,0.4-0.9,0.6
	c-28.3,16.6-52,40.3-68.7,68.7c-0.2,0.3-0.4,0.6-0.6,0.9c-0.1,0.2-0.2,0.5-0.4,0.7c-16.1,28.1-25.3,60.5-25.3,95.1
	c0,34.6,9.2,67.1,25.3,95.1c0.1,0.2,0.2,0.5,0.4,0.7c0.2,0.4,0.4,0.7,0.7,1.1c16.6,28.3,40.3,51.9,68.6,68.5
	c0.3,0.2,0.6,0.4,0.9,0.6c0.3,0.2,0.7,0.4,1,0.5c28,16,60.4,25.2,94.9,25.2s66.9-9.2,94.9-25.2c0.3-0.2,0.7-0.3,1-0.5
	c0.3-0.2,0.6-0.4,0.9-0.6c28.3-16.6,51.9-40.3,68.6-68.5c0.2-0.3,0.5-0.7,0.7-1.1C422.2,351.6,422.3,351.4,422.4,351.1z
	 M349.5,387.9l-0.2-0.3c-4.1-7.2-13.3-9.6-20.5-5.5c-7.2,4.1-9.6,13.3-5.5,20.5l0.2,0.3c-16.2,7.5-33.9,12.4-52.5,14.1v-0.4
	c0-8.3-6.7-15-15-15s-15,6.7-15,15v0.4c-18.6-1.7-36.3-6.6-52.5-14.1l0.2-0.3c4.1-7.2,1.7-16.3-5.5-20.5c-7.2-4.1-16.4-1.7-20.5,5.5
	l-0.2,0.3c-14.9-10.6-27.9-23.6-38.4-38.4l0.3-0.2c7.2-4.1,9.6-13.3,5.5-20.5c-4.1-7.2-13.3-9.6-20.5-5.5l-0.3,0.2
	c-7.5-16.2-12.4-33.9-14.1-52.5h0.4c8.3,0,15-6.7,15-15c0-8.3-6.7-15-15-15H95c1.7-18.6,6.6-36.3,14.1-52.5l0.3,0.2
	c2.4,1.4,4.9,2,7.5,2c5.2,0,10.2-2.7,13-7.5c4.1-7.2,1.7-16.3-5.5-20.5l-0.3-0.2c10.6-14.9,23.6-27.9,38.4-38.4l0.2,0.3
	c2.8,4.8,7.8,7.5,13,7.5c2.5,0,5.1-0.6,7.5-2c7.2-4.1,9.6-13.3,5.5-20.5l-0.2-0.3c16.2-7.5,33.9-12.4,52.5-14.1v0.4
	c0,8.3,6.7,15,15,15c8.3,0,15-6.7,15-15V95c18.6,1.7,36.3,6.6,52.5,14.1l-0.2,0.3c-4.1,7.2-1.7,16.3,5.5,20.5c2.4,1.4,4.9,2,7.5,2
	c5.2,0,10.2-2.7,13-7.5l0.2-0.3c14.9,10.6,27.9,23.6,38.4,38.4l-0.3,0.2c-7.2,4.1-9.6,13.3-5.5,20.5c2.8,4.8,7.8,7.5,13,7.5
	c2.5,0,5.1-0.6,7.5-2l0.3-0.2c7.5,16.2,12.4,33.9,14.1,52.5h-0.4c-8.3,0-15,6.7-15,15c0,8.3,6.7,15,15,15h0.4
	c-1.7,18.6-6.6,36.3-14.1,52.5l-0.3-0.2c-7.2-4.1-16.4-1.7-20.5,5.5s-1.7,16.3,5.5,20.5l0.3,0.2
	C377.3,364.3,364.3,377.3,349.5,387.9z"/>
<path class="st0" d="M336.3,241H271v-81.4c0-8.3-6.7-15-15-15s-15,6.7-15,15V256c0,8.3,6.7,15,15,15h80.3c8.3,0,15-6.7,15-15
	C351.3,247.7,344.6,241,336.3,241z"/>
</svg>
