<?xml version="1.0" encoding="UTF-8"?>
<svg width="82px" height="109px" viewBox="0 0 82 109" version="1.1" xmlns="http://www.w3.org/2000/svg" xmlns:xlink="http://www.w3.org/1999/xlink">
    <!-- Generator: Sketch 48.2 (47327) - http://www.bohemiancoding.com/sketch -->
    <title>Page 1</title>
    <desc>Created with Sketch.</desc>
    <defs>
        <polygon id="path-1" points="0 0 82 0 82 109 0 109"></polygon>
    </defs>
    <g id="10.1.Chubb---Education-Center---Financial-Kalkulator---Step1" stroke="none" stroke-width="1" fill="none" fill-rule="evenodd" transform="translate(-950.000000, -613.000000)">
        <g id="Page-1" transform="translate(950.000000, 613.000000)">
            <mask id="mask-2" fill="white">
                <use xlink:href="#path-1"></use>
            </mask>
            <g id="Clip-2"></g>
            <path d="M73.6614975,0 L8.33933638,0 C3.74148608,0 0.000833850253,3.77601069 0.000833850253,8.41919886 L0.000833850253,61.0821297 L8.33933638,61.0863393 L8.33933638,8.41919886 L73.6614975,8.41919886 L73.6648329,69.5114316 L52.3065925,69.496277 L52.2990878,69.496277 C48.8778003,69.496277 44.6476779,71.2735699 42.2370168,73.7252406 L24.9613073,91.3003182 L27.8489307,78.7607634 C28.3850965,76.4269615 27.8914571,74.0712697 26.4939241,72.2939768 C25.0963911,70.5175258 22.9342174,69.4988028 20.5619134,69.4988028 L0,69.4988028 L0,77.9180016 L19.4820773,77.9180016 L13.514211,103.836505 L13.5217157,103.838189 C13.4516723,104.14549 13.4049767,104.46121 13.4049767,104.790401 C13.4049767,107.114941 15.2728012,109 17.5742279,109 C18.7316121,109 19.7780941,108.522631 20.5327286,107.753959 L20.5343963,107.7548 L48.1556859,79.6557243 C48.9878685,78.8095948 51.1166882,77.9154759 52.298254,77.9154759 L52.2999217,77.9154759 L73.6589959,77.9306304 L73.663999,77.9306304 C75.8853761,77.9306304 77.9766725,77.0533499 79.5526495,75.4638052 C81.131128,73.8708927 82,71.7576738 82,69.5131154 L82,8.41919886 C82,3.77601069 78.2593478,0 73.6614975,0" id="Fill-1" fill="#7ACB00" mask="url(#mask-2)"></path>
        </g>
    </g>
</svg>