<?xml version="1.0" encoding="UTF-8"?>
<svg width="27px" height="27px" viewBox="0 0 27 27" version="1.1" xmlns="http://www.w3.org/2000/svg" xmlns:xlink="http://www.w3.org/1999/xlink">
    <!-- Generator: Sketch 48.2 (47327) - http://www.bohemiancoding.com/sketch -->
    <title>Group</title>
    <desc>Created with Sketch.</desc>
    <defs>
        <polygon id="path-1" points="0 0 10.9406828 0 10.9406828 13.9421579 0 13.9421579"></polygon>
    </defs>
    <g id="6.Chubb---FAQ" stroke="none" stroke-width="1" fill="none" fill-rule="evenodd" transform="translate(-145.000000, -580.000000)">
        <g id="Group" transform="translate(145.000000, 580.000000)">
            <g id="Group-2">
                <circle id="Oval" fill="#FF0198" cx="13.5" cy="13.5" r="13.5"></circle>
                <path d="M13.5,19.2820513 C12.8284615,19.2820513 12.2820513,19.8284615 12.2820513,20.5 C12.2820513,21.1715385 12.8284615,21.7179487 13.5,21.7179487 C14.1715385,21.7179487 14.7179487,21.1715385 14.7179487,20.5 C14.7179487,19.8284615 14.1715385,19.2820513 13.5,19.2820513 M13.5,23 C12.1215385,23 11,21.8784615 11,20.5 C11,19.1215385 12.1215385,18 13.5,18 C14.8784615,18 16,19.1215385 16,20.5 C16,21.8784615 14.8784615,23 13.5,23 Z M13.4875215,4 C16.5963817,4 18.9406828,6.28789474 18.9406828,9.32184211 C18.9406828,11.756 17.5629624,13.17 16.6511452,14.1056667 L16.5267151,14.2336316 C15.8665968,14.9150877 15.8665968,15.2167018 15.8665968,16.0225614 L15.8665968,17.3281228 C15.8665968,17.6673158 15.6017688,17.9421579 15.2751989,17.9421579 L11.8133925,17.9421579 L11.8133925,16.7140877 L14.6838011,16.7140877 L14.6838011,16.0225614 C14.6838011,15.0193509 14.7325323,14.3541053 15.6928441,13.3626842 L15.8197581,13.2322632 C16.6833172,12.3460877 17.7578871,11.2431579 17.7578871,9.32184211 C17.7578871,6.98801754 15.9220699,5.22807018 13.4875215,5.22807018 C11.3011237,5.22807018 9.46518817,6.86803509 9.21680108,9.04270175 C9.21443548,9.06345614 9.21218817,9.08568421 9.20994086,9.10901754 L10.7952419,9.10901754 C10.8039946,9.04147368 10.8142849,8.97564912 10.826586,8.91363158 L10.826586,8.91338596 C11.0834892,7.6207193 12.1280161,6.78563158 13.4875215,6.78563158 C15.1831774,6.78563158 16.0703925,8.10015789 16.0703925,9.39859649 C16.0703925,10.7335088 15.4501344,11.3732105 14.5917796,12.2587719 L14.5396183,12.3125614 C13.7122527,13.1666842 13.1330376,14.0547018 13.0184247,15.4860175 L11.8335,15.4860175 C11.9690484,13.5025614 12.8451452,12.3298772 13.7057473,11.4417368 L13.7581452,11.3875789 C14.5570054,10.5635439 14.8875968,10.2225088 14.8875968,9.39859649 C14.8875968,8.30536842 14.0074785,8.01370175 13.4875215,8.01370175 C12.6896075,8.01370175 12.1278978,8.44278947 11.9850161,9.16157895 C11.9587581,9.29445614 11.9395968,9.53049123 11.9395968,9.72305263 C11.9395968,10.0621228 11.6747688,10.3370877 11.3481989,10.3370877 L7.99994086,10.3370877 L7.99994086,9.72305263 C7.99994086,9.44636842 8.01661828,9.12252632 8.04216667,8.89803509 C8.36116667,6.10564912 10.7020376,4 13.4875215,4 Z" id="Combined-Shape" fill="#FFFFFF"></path>
            </g>
            <g id="Page-1" transform="translate(8.000000, 4.000000)">
                <g id="Group-5">
                    <mask id="mask-2" fill="white">
                        <use xlink:href="#path-1"></use>
                    </mask>
                    <g id="Clip-4"></g>
                </g>
            </g>
        </g>
    </g>
</svg>