<?xml version="1.0" encoding="UTF-8"?>
<svg width="162px" height="152px" viewBox="0 0 162 152" version="1.1" xmlns="http://www.w3.org/2000/svg" xmlns:xlink="http://www.w3.org/1999/xlink">
    <!-- Generator: Sketch 48.2 (47327) - http://www.bohemiancoding.com/sketch -->
    <title>mortgage</title>
    <desc>Created with Sketch.</desc>
    <defs></defs>
    <g id="8.1.Chubb---Produk" stroke="none" stroke-width="1" fill="none" fill-rule="evenodd" transform="translate(-568.000000, -1081.000000)">
        <g id="mortgage" transform="translate(568.000000, 1081.000000)" fill-rule="nonzero">
            <path d="M73.8811949,37.9165333 L63.500268,25 L53.1193412,37.9165333 L9,37.9165333 L9,87 L21.9760246,87 L21.9760246,65.0414666 C21.9760246,57.1931492 28.3654006,50.8330665 36.249866,50.8330665 C44.1343314,50.8330665 50.5237074,57.1931492 50.5237074,65.0414666 L50.5237074,87 L118,87 L118,37.9165333 L98.4414063,37.9165333 L73.8811949,37.9165333 Z" id="Shape" stroke="#6E27C5" stroke-width="5"></path>
            <path d="M143.723262,113.177831 L143.723262,120.942372 L126.237695,120.942372 L119.062691,116.195652 L97.0576913,108.457307 C94.960847,107.727577 92.715692,107.875126 90.7364177,108.871622 C88.7544468,109.868118 87.3107092,111.576167 86.6656923,113.683029 C85.5509348,117.332213 87.2060827,121.276497 90.6005111,123.062598 L96.2530381,126.03872 L88.0339263,126.064381 L84.6551379,117.689326 C83.5452342,114.940944 80.9004491,113.167674 77.9137404,113.167674 C75.5822955,113.167674 73.3786675,114.288197 72.0179838,116.164645 C70.6573002,118.041094 70.2894895,120.471388 71.0337398,122.663251 L71.8222137,124.985022 L66.0963403,121.881665 C64.2713092,120.893188 62.0935681,120.699128 60.1250801,121.358826 C58.1538955,122.011038 56.5321849,123.463014 55.6757577,125.339463 C53.9995767,129.009496 55.5425477,133.28256 59.1877562,135.065988 L72.0756902,141.370534 L98.8277126,146.764121 L133.540516,146.815977 L143.723262,144.794652 L143.723262,152 L162,152 L162,113.177831 L143.723262,113.177831 Z M76.2585925,119.185139 C77.1333562,117.973734 79.2453012,118.230342 79.8040283,119.612285 L82.4148367,126.079885 L77.7098805,126.095388 L75.9813862,121.009731 C75.7678188,120.385852 75.8697487,119.720809 76.2585925,119.185139 Z M143.723262,139.514935 L133.021159,141.647457 L99.5956926,141.647457 L74.0759977,136.58265 L61.49655,130.427792 C60.3920394,129.886776 59.9222988,128.590369 60.4314092,127.474658 C60.6951326,126.897289 61.1729629,126.468005 61.7813066,126.268599 C62.3842572,126.064381 63.0319707,126.126395 63.5933942,126.431652 L72.5621494,131.294914 L97.3429872,131.294914 L107.646,126.183062 L93.0506046,118.488554 C91.8549504,117.859864 91.2697971,116.467229 91.664034,115.18098 C91.8910843,114.438419 92.4001946,113.832717 93.1002213,113.483088 C93.7975515,113.131321 94.5908791,113.082137 95.3297363,113.335538 L116.439479,120.68309 L124.656433,126.118376 L143.724341,126.118376 L143.724341,139.514935 L143.723262,139.514935 Z M156.778383,146.823996 L148.945419,146.823996 L148.945419,118.35437 L156.778383,118.35437 L156.778383,146.823996 Z" id="Shape" fill="#6E27C5"></path>
            <path d="M126,85.3998926 L53.083423,85.3998926 L53.083423,65.8997583 C53.083423,56.581476 45.4897841,49 36.1565526,49 C26.8233211,49 19.2296822,56.581476 19.2296822,65.8997583 L19.2296822,85.3998926 L1,85.3998926 L1,101 L126,101 L126,85.3998926 Z M24.4377017,65.8997583 C24.4377017,59.4493008 29.6957467,54.1996778 36.1565526,54.1996778 C42.6173585,54.1996778 47.8754034,59.4493008 47.8754034,65.8997583 L47.8754034,85.3998926 L24.4377017,85.3998926 L24.4377017,65.8997583 Z M120.79198,95.7997852 L6.20855746,95.7997852 L6.20855746,90.5995704 L19.2291443,90.5995704 L53.083423,90.5995704 L120.79198,90.5995704 L120.79198,95.7997852 Z" id="Shape" fill="#6E27C5"></path>
            <path d="M37.006396,41 L53.8502793,41 L62.9997315,29.7273819 L72.1491838,41 L88.9930671,41 L94.2724852,41 L126,41 L117.089472,0 L8.91052809,0 L0,41 L31.7275148,41 L37.006396,41 Z M74.644733,35.8752647 L62.9997315,21.5226181 L51.3547301,35.8752647 L42.2858141,35.8752647 L62.9997315,9.3274206 L83.713649,35.8752647 L74.644733,35.8752647 Z M119.568914,35.8752647 L90.2719823,35.8752647 L66.277556,5.12526465 L112.883333,5.12526465 L119.568914,35.8752647 Z M6.43054922,35.8752647 L13.1161298,5.12526465 L59.7219071,5.12526465 L35.7274808,35.8752647 L6.43054922,35.8752647 Z" id="Shape" fill="#6E27C5"></path>
            <path d="M65,73 L106,73 L106,47 L65,47 L65,73 Z M70.1246692,62.5995704 L82.9368715,62.5995704 L82.9368715,67.7997852 L70.1246692,67.7997852 L70.1246692,62.5995704 Z M88.0620699,67.7997852 L88.0620699,62.5995704 L100.874272,62.5995704 L100.874272,67.7997852 L88.0620699,67.7997852 Z M100.874802,57.3998926 L88.0625992,57.3998926 L88.0625992,52.1996778 L100.874802,52.1996778 L100.874802,57.3998926 Z M82.9374008,52.1996778 L82.9374008,57.3998926 L70.1251985,57.3998926 L70.1251985,52.1996778 L82.9374008,52.1996778 Z" id="Shape" fill="#6E27C5"></path>
        </g>
    </g>
</svg>