<?xml version="1.0" encoding="UTF-8"?>
<svg width="145px" height="122px" viewBox="0 0 145 122" version="1.1" xmlns="http://www.w3.org/2000/svg" xmlns:xlink="http://www.w3.org/1999/xlink">
    <!-- Generator: Sketch 48.2 (47327) - http://www.bohemiancoding.com/sketch -->
    <title>care (2)</title>
    <desc>Created with Sketch.</desc>
    <defs></defs>
    <g id="8.1.Chubb---Produk" stroke="none" stroke-width="1" fill="none" fill-rule="evenodd" transform="translate(-568.000000, -752.000000)">
        <g id="care-(2)" transform="translate(568.000000, 752.000000)" fill="#7ACB00" fill-rule="nonzero">
            <path d="M86.2861835,104.729321 L75.3295978,104.729321 C73.7702209,104.729321 72.5059451,105.981931 72.5059451,107.527544 C72.5059451,109.073157 73.7702209,110.325767 75.3295978,110.325767 L86.2861835,110.325767 C87.9771559,110.325767 89.352977,111.688917 89.352977,113.364661 C89.352977,115.040404 87.9774382,116.403555 86.2861835,116.403555 L56.791876,116.403555 C52.3582979,116.403555 48.1890402,114.466431 45.3538093,111.088639 L38.3004667,102.686974 C34.5158289,98.1785867 29.0077435,95.5381996 23.114191,95.371129 L23.114191,78.841214 L33.5107904,78.841214 C38.6379269,78.841214 43.4925537,80.7844942 47.1808953,84.3128462 L62.4041646,98.8748541 C63.4803662,99.9044232 63.5306323,101.628301 62.5159924,102.717478 C61.4818674,103.827364 59.7265093,103.899845 58.6028656,102.879231 L46.6511251,92.022161 C45.5020659,90.9780397 43.7156446,91.0547186 42.6620344,92.193989 C41.6081419,93.3332594 41.6858001,95.1033123 42.835424,96.1474336 L54.7871645,107.004504 C56.3990666,108.468681 58.4387949,109.191814 60.4734401,109.191814 C62.7450135,109.191814 65.0100919,108.290416 66.665765,106.513087 C69.7455486,103.206656 69.5933385,97.9740162 66.326328,94.8486485 L51.1030588,80.2866406 C46.3563063,75.7457904 40.1086323,73.2450485 33.5107904,73.2450485 L22.5657828,73.2450485 C21.5034184,70.7532618 19.0118605,69 16.1150679,69 L2.82365269,69 C1.26427573,69 0,70.2526097 0,71.7982227 L0,92.2600337 C0,93.8053668 1.26427573,95.0582564 2.82365269,95.0582564 C4.38302964,95.0582564 5.64730537,93.8056466 5.64730537,92.2600337 L5.64730537,74.5961655 L16.1153503,74.5961655 C16.8608692,74.5961655 17.467168,75.1972839 17.467168,75.9358087 L17.467168,98.3638476 C17.467168,99.1023724 16.8608692,99.7034907 16.1153503,99.7034907 L13.1826937,99.7034907 C11.6233168,99.7034907 10.3590411,100.9561 10.3590411,102.501713 C10.3590411,104.047047 11.6233168,105.299936 13.1826937,105.299936 L16.1150679,105.299936 C19.0508308,105.299936 21.568369,103.49882 22.6061651,100.953582 C27.0081151,100.978488 31.1420737,102.910295 33.9592313,106.266259 L41.0125739,114.667923 C44.9242888,119.32771 50.675515,122 56.791876,122 L86.2861835,122 C91.0908267,122 95,118.126313 95,113.364661 C95,108.603009 91.0908267,104.729321 86.2861835,104.729321 Z" id="Shape"></path>
            <path d="M142.176073,25.848785 C140.616701,25.848785 139.352429,27.1014014 139.352429,28.6470225 L139.352429,47.4040848 L128.884415,47.4040848 C128.138899,47.4040848 127.532601,46.8029633 127.532601,46.0644345 L127.532601,23.6362772 C127.532601,22.8977485 128.138899,22.296627 128.884415,22.296627 L131.609787,22.296627 C133.169159,22.296627 134.433431,21.0440106 134.433431,19.4983895 C134.433431,17.9530483 133.169159,16.7001521 131.609787,16.7001521 L128.884415,16.7001521 C125.948661,16.7001521 123.43113,18.5012778 122.393337,21.0465293 C117.9914,21.0216225 113.857454,19.089806 111.040305,15.733824 L103.986983,7.33239521 C100.075562,2.67258403 94.3240709,0 88.2074457,0 L58.7137906,0 C53.9091617,0 50,3.87370767 50,8.63510502 C50,13.3965024 53.9091617,17.27021 58.7137906,17.27021 L70.7742167,17.27021 C72.333589,17.27021 73.5978609,16.0175937 73.5978609,14.4719726 C73.5978609,12.9263515 72.333589,11.6737351 70.7742167,11.6737351 L58.7137906,11.6737351 C57.0228233,11.6737351 55.6470062,10.3105773 55.6470062,8.63482517 C55.6470062,6.95935286 57.0225409,5.59591522 58.7137906,5.59591522 L88.207728,5.59591522 C92.6415753,5.59591522 96.8108207,7.53304891 99.6460431,10.9108593 L106.699365,19.3122881 C110.483709,23.8206995 115.99206,26.4611006 121.885595,26.6284519 L121.885595,43.1584542 L111.489027,43.1584542 C106.361906,43.1584542 101.507293,41.2151637 97.8189625,37.6867931 L82.5957385,23.1247083 C81.5195401,22.0951337 81.4692742,20.3715269 82.483911,19.2820641 C83.518033,18.1718923 85.2733858,18.0996906 86.3970263,19.1203098 L98.3490136,29.9774376 C99.4986341,31.0215644 101.284203,30.944885 102.338375,29.8056087 C103.391982,28.6663323 103.314324,26.8962701 102.164703,25.8521432 L90.212716,14.9952953 C86.8014126,11.8964971 81.4732277,12.1173001 78.3341508,15.486715 C75.2543763,18.793443 75.406586,24.0261107 78.6735868,27.151215 L93.8968107,41.7132998 C98.6435491,46.254174 104.891205,48.7549291 111.489027,48.7549291 L122.434002,48.7549291 C123.496363,51.2467289 125.987914,53 128.884698,53 L142.176356,53 C143.735728,53 145,51.7473837 145,50.2017625 L145,28.6464628 C144.999718,27.1014014 143.735446,25.848785 142.176073,25.848785 Z" id="Shape"></path>
            <path d="M91.7356147,95.7625417 C91.0570567,94.2571131 89.2935218,93.5854742 87.7931744,94.2654899 C86.2820847,94.925162 85.5909939,96.6878777 86.2489624,98.2022814 C86.7377391,99.3280619 87.8346518,100 88.985873,100 C89.3836382,100 89.7876697,99.9198222 90.1755876,99.7504914 C90.1881204,99.7451063 90.227509,99.7274552 90.2397433,99.7220701 C91.7415827,99.0420544 92.4138744,97.2682694 91.7356147,95.7625417 Z" id="Shape"></path>
            <path d="M99.4126921,92.2150022 C98.4345535,90.8835872 96.5545765,90.6065089 95.2245594,91.5822802 C93.8915502,92.5604505 93.6019086,94.4367262 94.5779527,95.7726392 C95.1641177,96.5747868 96.0725388,97 96.9941255,97 C97.6075192,97 98.2265981,96.8116827 98.7592033,96.4209544 C98.7639908,96.4176558 98.7921171,96.3966651 98.7966054,96.3933665 C100.121835,95.4097986 100.390531,93.5458176 99.4126921,92.2150022 Z" id="Shape"></path>
            <path d="M83.9345036,99.3765116 C83.5942813,97.7623086 82.015041,96.7287391 80.4050342,97.0626708 C78.7968197,97.3831133 77.7453867,98.9463572 78.0536477,100.565057 C78.3272593,102.000903 79.5791216,103 80.9839197,103 C81.1697127,103 81.3587915,102.982314 81.5478702,102.946043 C81.5672858,102.942146 81.6162731,102.932254 81.6359874,102.928058 C83.2489812,102.584834 84.2759206,100.995511 83.9345036,99.3765116 Z" id="Shape"></path>
            <path d="M104.012466,84.7694155 C102.786383,83.663992 100.896122,83.7611425 99.7896564,84.9870327 C99.7750032,85.0034736 99.7406131,85.0423338 99.726259,85.0587746 C98.6473058,86.3085788 98.7866606,88.1959894 100.036966,89.2742108 C100.601862,89.7614581 101.296842,90 101.988532,90 C102.818979,90 103.644641,89.6562366 104.234955,88.9854496 C105.336038,87.7595593 105.237054,85.8733445 104.012466,84.7694155 Z M102.342601,87.2896497 L102.010063,86.9889315 L102.370113,87.3135637 L102.342601,87.2896497 Z" id="Shape"></path>
            <path d="M110.870622,70.1287008 C109.287845,69.6494659 107.61341,70.550834 107.133245,72.130844 C106.64679,73.7087613 107.534031,75.3814493 109.11501,75.8669623 C109.408261,75.9572485 109.704807,76 109.99656,76 C111.2768,76 112.462084,75.1742691 112.858078,73.8890349 L112.870659,73.8480772 C113.350524,72.2680672 112.453398,70.6076366 110.870622,70.1287008 Z" id="Shape"></path>
            <path d="M114.952591,55.4870816 C114.945996,55.4491541 114.938802,55.4112266 114.930709,55.3732992 C114.592293,53.7594412 113.004823,52.727038 111.38558,53.0636068 C109.772033,53.3986825 108.734602,54.9707306 109.05953,56.5780185 C109.334399,58.0028365 110.587649,59 111.998866,59 C112.174219,59 112.35227,58.9847693 112.530621,58.9528147 C114.160055,58.6622366 115.244246,57.110496 114.952591,55.4870816 Z" id="Shape"></path>
            <path d="M112.264301,61.011674 C110.619935,60.8671828 109.159409,62.0807301 109.013956,63.722676 C109.011257,63.7516339 109.007058,63.8104454 109.005259,63.8394034 C108.90809,65.4852303 110.169181,66.8979008 111.822544,66.9946264 C111.882525,66.9982088 111.941905,67 112.001286,67 C113.562579,67 114.874654,65.7980956 114.989516,64.2328733 C115.126272,62.5968981 113.909267,61.1561652 112.264301,61.011674 Z" id="Shape"></path>
            <path d="M109.482914,78.3874738 C108.046866,77.5769178 106.220092,78.0791587 105.405733,79.5105152 L105.364148,79.5849874 C104.576415,81.0309406 105.108052,82.8519359 106.559957,83.6362776 C107.0168,83.8829296 107.508347,84 107.992715,84 C109.04851,84 110.068403,83.4423518 110.608417,82.4509773 L108.007973,80.97881 L110.610511,82.4474026 C111.42517,81.0160461 110.920459,79.1986254 109.482914,78.3874738 Z" id="Shape"></path>
            <path d="M57.6835903,24.6585218 C56.9449174,23.1770752 55.1471509,22.5763995 53.6704034,23.3174227 L53.6437765,23.3306178 C52.1658324,24.0713411 51.5803391,25.8655709 52.3193112,27.3467176 C52.8425752,28.3960256 53.9028655,29 55.0020491,29 C55.455006,29 55.914545,28.8974383 56.3456619,28.681519 C57.823606,27.9410956 58.4222632,26.1399684 57.6835903,24.6585218 Z" id="Shape"></path>
            <path d="M65.9153739,22.2893842 C65.5273769,20.6827782 63.9175322,19.6951573 62.3145468,20.085055 C62.3008282,20.088349 62.2584796,20.0991296 62.244761,20.1027231 C60.6498278,20.5153798 59.6838613,22.1495361 60.0945238,23.7507517 C60.4413651,25.1019178 61.6483013,26 62.9751259,26 C63.2208673,26 63.4707839,25.9691556 63.720104,25.9047715 C65.3204054,25.5151733 66.3033709,23.896589 65.9153739,22.2893842 Z" id="Shape"></path>
            <path d="M50.3381968,29.1147237 C49.3044406,27.8286048 47.422275,27.6265731 46.1362081,28.6591796 L47.989376,31.007237 L46.1272397,28.6660636 C44.8357919,29.6956771 44.6226432,31.5783133 45.6507194,32.8713162 C46.2414372,33.6135957 47.1122677,34 47.9914686,34 C48.6437694,34 49.3011522,33.786894 49.8515123,33.3484103 L49.8909732,33.3166839 C51.1734527,32.2795878 51.371953,30.4008426 50.3381968,29.1147237 Z" id="Shape"></path>
            <path d="M34.7917586,49.1058994 C33.1955298,48.6722198 31.5489695,49.6097683 31.1136616,51.2011217 C31.1061718,51.2283013 31.0917914,51.2847513 31.0849007,51.3122297 C30.6954305,52.9146341 31.6828873,54.5259989 33.2899015,54.9151756 C33.5271787,54.9725217 33.764456,55 33.9981381,55 C35.34211,55 36.563249,54.0908259 36.903586,52.7357263 C37.3143273,51.15632 36.3757041,49.5365923 34.7917586,49.1058994 Z" id="Shape"></path>
            <path d="M33.1743959,57.0047238 C31.5164637,56.913031 30.1024068,58.1671616 30.0064165,59.8134508 C30.0040168,59.8519797 30.0025169,59.8902099 30.0013171,59.9284402 C29.952722,61.5762227 31.2548902,62.9492255 32.9101226,62.9985066 C32.9407195,62.9994027 32.9707165,63 33.0010134,63 C34.6088507,63 35.9374162,61.729741 35.9968102,60.121682 C36.0718026,58.4912225 34.8155298,57.099702 33.1743959,57.0047238 Z" id="Shape"></path>
            <path d="M38.3968742,40.3426539 C36.9329617,39.5759512 35.124247,40.1391759 34.3565235,41.6002735 L34.3077364,41.6964849 C33.5783243,43.1764064 34.1901086,44.963786 35.6722789,45.692542 C36.0966968,45.9013983 36.5465558,46 36.9904287,46 C38.0894855,46 39.1475371,45.3928527 39.6719237,44.3470773 C40.4171991,42.8910592 39.8509095,41.1042772 38.3968742,40.3426539 Z" id="Shape"></path>
            <path d="M43.9196206,33.6894986 C42.6485566,32.6347549 40.762751,32.8096982 39.7076691,34.0800558 C39.6933102,34.0976996 39.6604043,34.1383702 39.6460454,34.1560141 C38.6205788,35.4499965 38.8398516,37.3274223 40.1336506,38.3531583 C40.6828795,38.7888718 41.3380055,39 41.9889434,39 C42.8663336,39 43.7362452,38.6160219 44.3270552,37.8797647 C45.3632909,36.6097062 45.1838044,34.7388594 43.9196206,33.6894986 Z" id="Shape"></path>
            <path d="M35.9523869,67.4648953 C35.6605144,65.8382804 34.1009617,64.7559651 32.4712156,65.0474152 C30.8405695,65.3388653 29.755572,66.8933658 30.0474444,68.5199808 L30.0528439,68.5493053 C30.3126194,69.9954845 31.5716005,71 32.9937662,71 C33.1710495,71 33.3507325,70.98444 33.5313155,70.9521232 C35.1619615,70.6609723 36.2445593,69.0915103 35.9523869,67.4648953 Z" id="Shape"></path>
            <path d="M81.9571405,46 C78.301196,46 74.9137942,47.5330024 72.5,50.1199975 C70.0859249,47.5330024 66.698804,46 63.0428595,46 C55.8509157,46 50,51.9494889 50,59.2625988 C50,63.2086447 51.7115382,66.9224694 54.6952833,69.4520519 C54.7132611,69.4674762 54.7318006,69.4826149 54.7503402,69.4977535 L70.7564389,82.3833143 C71.2671194,82.7946285 71.8834193,83 72.4997191,83 C73.118828,83 73.7379368,82.7926291 74.2497409,82.3778872 L90.933938,68.864501 C91.0156806,68.7985193 91.0934906,68.7276819 91.1673679,68.6528455 C93.639028,66.1463995 95,62.8116122 95,59.2625988 C95,51.9494889 89.1490843,46 81.9571405,46 Z M87.3021511,64.5042845 L72.4949438,76.4975219 L58.267238,65.0438488 C56.5829474,63.6031065 55.6174859,61.498263 55.6174859,59.2631701 C55.617205,55.0994704 58.9484263,51.7121264 63.0428595,51.7121264 C66.0572229,51.7121264 68.7507959,53.5427603 69.9053047,56.3756871 C70.3404225,57.4425333 71.3643117,58.1383399 72.5,58.1383399 C73.6356883,58.1383399 74.6595775,57.442819 75.0946953,56.3756871 C76.2492041,53.5427603 78.9427771,51.7121264 81.9571405,51.7121264 C86.0515737,51.7121264 89.382795,55.0994704 89.382795,59.2628844 C89.382795,61.2343364 88.6448645,63.0898206 87.3021511,64.5042845 Z" id="Shape"></path>
            <circle id="Oval" cx="3" cy="103" r="3"></circle>
            <circle id="Oval" cx="142" cy="20" r="3"></circle>
        </g>
    </g>
</svg>